<?xml version="1.0" encoding="utf-8" standalone="no"?>
<!DOCTYPE svg PUBLIC "-//W3C//DTD SVG 1.1//EN"
  "http://www.w3.org/Graphics/SVG/1.1/DTD/svg11.dtd">
<svg xmlns:xlink="http://www.w3.org/1999/xlink" width="985.309091pt" height="655.2pt" viewBox="0 0 985.309091 655.2" xmlns="http://www.w3.org/2000/svg" version="1.1">
 <metadata>
  <rdf:RDF xmlns:dc="http://purl.org/dc/elements/1.1/" xmlns:cc="http://creativecommons.org/ns#" xmlns:rdf="http://www.w3.org/1999/02/22-rdf-syntax-ns#">
   <cc:Work>
    <dc:type rdf:resource="http://purl.org/dc/dcmitype/StillImage"/>
    <dc:date>2026-04-27T11:54:07.618423</dc:date>
    <dc:format>image/svg+xml</dc:format>
    <dc:creator>
     <cc:Agent>
      <dc:title>Matplotlib v3.10.8, https://matplotlib.org/</dc:title>
     </cc:Agent>
    </dc:creator>
   </cc:Work>
  </rdf:RDF>
 </metadata>
 <defs>
  <style type="text/css">*{stroke-linejoin: round; stroke-linecap: butt}</style>
 </defs>
 <g id="figure_1">
  <g id="patch_1">
   <path d="M 0 655.2 
L 985.309091 655.2 
L 985.309091 0 
L 0 0 
L 0 655.2 
z
" style="fill: none"/>
  </g>
  <g id="axes_1">
   <g id="patch_2">
    <path d="M 910.145455 507.218182 
C 910.145455 396.535174 866.129904 290.272234 787.865198 212.007529 
C 709.600493 133.742824 603.337553 89.727273 492.654545 89.727273 
C 381.971538 89.727273 275.708598 133.742824 197.443893 212.007529 
C 119.179187 290.272234 75.163636 396.535174 75.163636 507.218182 
L 181.963636 507.218182 
C 181.963636 424.849432 214.719395 345.770035 272.962897 287.526533 
C 331.206398 229.283031 410.285795 196.527273 492.654545 196.527273 
C 575.023295 196.527273 654.102692 229.283031 712.346194 287.526533 
C 770.589696 345.770035 803.345455 424.849432 803.345455 507.218182 
z
" clip-path="url(#pfd6205ca1c)" style="fill: #fdecec; stroke: #e5908f; stroke-width: 1.4; stroke-linejoin: miter"/>
   </g>
   <g id="patch_3">
    <path d="M 803.345455 507.218182 
C 803.345455 424.849432 770.589696 345.770035 712.346194 287.526533 
C 654.102692 229.283031 575.023295 196.527273 492.654545 196.527273 
C 410.285795 196.527273 331.206398 229.283031 272.962897 287.526533 
C 214.719395 345.770035 181.963636 424.849432 181.963636 507.218182 
L 279.054545 507.218182 
C 279.054545 450.589666 301.57413 396.222581 341.616537 356.180173 
C 381.658944 316.137766 436.02603 293.618182 492.654545 293.618182 
C 549.283061 293.618182 603.650147 316.137766 643.692554 356.180173 
C 683.734961 396.222581 706.254545 450.589666 706.254545 507.218182 
z
" clip-path="url(#pfd6205ca1c)" style="fill: #f1ecf9; stroke: #b79ce0; stroke-width: 1.4; stroke-linejoin: miter"/>
   </g>
   <g id="patch_4">
    <path d="M 706.254545 507.218182 
C 706.254545 450.589666 683.734961 396.222581 643.692554 356.180173 
C 603.650147 316.137766 549.283061 293.618182 492.654545 293.618182 
C 436.02603 293.618182 381.658944 316.137766 341.616537 356.180173 
C 301.57413 396.222581 279.054545 450.589666 279.054545 507.218182 
L 390.709091 507.218182 
C 390.709091 480.190936 401.457074 454.243009 420.568223 435.13186 
C 439.679372 416.020711 465.627299 405.272727 492.654545 405.272727 
C 519.681792 405.272727 545.629719 416.020711 564.740868 435.13186 
C 583.852017 454.243009 594.6 480.190936 594.6 507.218182 
z
" clip-path="url(#pfd6205ca1c)" style="fill: #eaf3fb; stroke: #9cc3e5; stroke-width: 1.4; stroke-linejoin: miter"/>
   </g>
   <g id="patch_5">
    <path d="M 594.6 507.218182 
C 594.6 480.190936 583.852017 454.243009 564.740868 435.13186 
C 545.629719 416.020711 519.681792 405.272727 492.654545 405.272727 
C 465.627299 405.272727 439.679372 416.020711 420.568223 435.13186 
C 401.457074 454.243009 390.709091 480.190936 390.709091 507.218182 
L 492.654545 507.218182 
C 492.654545 507.218182 492.654545 507.218182 492.654545 507.218182 
C 492.654545 507.218182 492.654545 507.218182 492.654545 507.218182 
C 492.654545 507.218182 492.654545 507.218182 492.654545 507.218182 
C 492.654545 507.218182 492.654545 507.218182 492.654545 507.218182 
z
" clip-path="url(#pfd6205ca1c)" style="fill: #fff7e6; stroke: #e8c77b; stroke-width: 1.4; stroke-linejoin: miter"/>
   </g>
   <g id="line2d_1">
    <path d="M 543.627273 518.869091 
L 543.627273 581.978182 
" clip-path="url(#pfd6205ca1c)" style="fill: none; stroke: #888888; stroke-width: 0.8; stroke-linecap: square"/>
   </g>
   <g id="text_1">
    <!-- language -->
    <g style="fill: #444444" transform="translate(513.363679 609.332514) scale(0.13 -0.13)">
     <defs>
      <path id="DejaVuSans-Oblique-6c" d="M 1172 4863 
L 1747 4863 
L 800 0 
L 225 0 
L 1172 4863 
z
" transform="scale(0.015625)"/>
      <path id="DejaVuSans-Oblique-61" d="M 3438 1997 
L 3047 0 
L 2472 0 
L 2578 531 
Q 2325 219 2001 64 
Q 1678 -91 1281 -91 
Q 834 -91 548 182 
Q 263 456 263 884 
Q 263 1497 752 1853 
Q 1241 2209 2100 2209 
L 2900 2209 
L 2931 2363 
Q 2938 2388 2941 2417 
Q 2944 2447 2944 2509 
Q 2944 2788 2717 2942 
Q 2491 3097 2081 3097 
Q 1800 3097 1504 3025 
Q 1209 2953 897 2809 
L 997 3341 
Q 1322 3463 1633 3523 
Q 1944 3584 2234 3584 
Q 2853 3584 3176 3315 
Q 3500 3047 3500 2534 
Q 3500 2431 3484 2292 
Q 3469 2153 3438 1997 
z
M 2816 1759 
L 2241 1759 
Q 1534 1759 1195 1570 
Q 856 1381 856 984 
Q 856 709 1029 553 
Q 1203 397 1509 397 
Q 1978 397 2328 733 
Q 2678 1069 2791 1631 
L 2816 1759 
z
" transform="scale(0.015625)"/>
      <path id="DejaVuSans-Oblique-6e" d="M 3566 2113 
L 3156 0 
L 2578 0 
L 2988 2091 
Q 3016 2238 3031 2350 
Q 3047 2463 3047 2528 
Q 3047 2791 2881 2937 
Q 2716 3084 2419 3084 
Q 1956 3084 1622 2776 
Q 1288 2469 1184 1941 
L 800 0 
L 225 0 
L 903 3500 
L 1478 3500 
L 1363 2950 
Q 1603 3253 1940 3418 
Q 2278 3584 2650 3584 
Q 3113 3584 3367 3334 
Q 3622 3084 3622 2631 
Q 3622 2519 3608 2391 
Q 3594 2263 3566 2113 
z
" transform="scale(0.015625)"/>
      <path id="DejaVuSans-Oblique-67" d="M 3816 3500 
L 3219 434 
Q 3047 -456 2561 -893 
Q 2075 -1331 1253 -1331 
Q 950 -1331 690 -1286 
Q 431 -1241 206 -1147 
L 313 -588 
Q 525 -725 762 -790 
Q 1000 -856 1269 -856 
Q 1816 -856 2167 -557 
Q 2519 -259 2631 300 
L 2681 563 
Q 2441 288 2122 144 
Q 1803 0 1434 0 
Q 903 0 598 351 
Q 294 703 294 1319 
Q 294 1803 478 2267 
Q 663 2731 997 3091 
Q 1219 3328 1514 3456 
Q 1809 3584 2131 3584 
Q 2484 3584 2746 3420 
Q 3009 3256 3138 2956 
L 3238 3500 
L 3816 3500 
z
M 2950 2216 
Q 2950 2641 2750 2872 
Q 2550 3103 2181 3103 
Q 1953 3103 1747 3012 
Q 1541 2922 1394 2759 
Q 1156 2491 1023 2127 
Q 891 1763 891 1375 
Q 891 944 1092 712 
Q 1294 481 1672 481 
Q 2219 481 2584 976 
Q 2950 1472 2950 2216 
z
" transform="scale(0.015625)"/>
      <path id="DejaVuSans-Oblique-75" d="M 428 1388 
L 838 3500 
L 1416 3500 
L 1006 1409 
Q 975 1256 961 1147 
Q 947 1038 947 966 
Q 947 700 1109 554 
Q 1272 409 1569 409 
Q 2031 409 2368 721 
Q 2706 1034 2809 1563 
L 3194 3500 
L 3769 3500 
L 3091 0 
L 2516 0 
L 2631 550 
Q 2388 244 2052 76 
Q 1716 -91 1338 -91 
Q 878 -91 622 161 
Q 366 413 366 863 
Q 366 956 381 1097 
Q 397 1238 428 1388 
z
" transform="scale(0.015625)"/>
      <path id="DejaVuSans-Oblique-65" d="M 3078 2063 
Q 3088 2113 3092 2166 
Q 3097 2219 3097 2272 
Q 3097 2653 2873 2875 
Q 2650 3097 2266 3097 
Q 1838 3097 1509 2826 
Q 1181 2556 1013 2059 
L 3078 2063 
z
M 3578 1613 
L 903 1613 
Q 884 1494 878 1425 
Q 872 1356 872 1306 
Q 872 872 1139 634 
Q 1406 397 1894 397 
Q 2269 397 2603 481 
Q 2938 566 3225 728 
L 3116 159 
Q 2806 34 2476 -28 
Q 2147 -91 1806 -91 
Q 1078 -91 686 257 
Q 294 606 294 1247 
Q 294 1794 489 2264 
Q 684 2734 1063 3103 
Q 1306 3334 1642 3459 
Q 1978 3584 2356 3584 
Q 2950 3584 3301 3228 
Q 3653 2872 3653 2272 
Q 3653 2128 3634 1964 
Q 3616 1800 3578 1613 
z
" transform="scale(0.015625)"/>
     </defs>
     <use xlink:href="#DejaVuSans-Oblique-6c"/>
     <use xlink:href="#DejaVuSans-Oblique-61" transform="translate(27.783203 0)"/>
     <use xlink:href="#DejaVuSans-Oblique-6e" transform="translate(89.0625 0)"/>
     <use xlink:href="#DejaVuSans-Oblique-67" transform="translate(152.441406 0)"/>
     <use xlink:href="#DejaVuSans-Oblique-75" transform="translate(215.917969 0)"/>
     <use xlink:href="#DejaVuSans-Oblique-61" transform="translate(279.296875 0)"/>
     <use xlink:href="#DejaVuSans-Oblique-67" transform="translate(340.576172 0)"/>
     <use xlink:href="#DejaVuSans-Oblique-65" transform="translate(404.052734 0)"/>
    </g>
   </g>
   <g id="line2d_2">
    <path d="M 650.427273 518.869091 
L 650.427273 581.978182 
" clip-path="url(#pfd6205ca1c)" style="fill: none; stroke: #888888; stroke-width: 0.8; stroke-linecap: square"/>
   </g>
   <g id="text_2">
    <!-- core -->
    <g style="fill: #444444" transform="translate(636.20446 609.332514) scale(0.13 -0.13)">
     <defs>
      <path id="DejaVuSans-Oblique-63" d="M 3431 3366 
L 3316 2797 
Q 3109 2947 2876 3022 
Q 2644 3097 2394 3097 
Q 2119 3097 1870 3000 
Q 1622 2903 1453 2725 
Q 1184 2453 1037 2087 
Q 891 1722 891 1331 
Q 891 859 1127 628 
Q 1363 397 1844 397 
Q 2081 397 2348 469 
Q 2616 541 2906 684 
L 2797 116 
Q 2547 13 2283 -39 
Q 2019 -91 1741 -91 
Q 1044 -91 669 257 
Q 294 606 294 1253 
Q 294 1797 489 2255 
Q 684 2713 1069 3078 
Q 1331 3328 1684 3456 
Q 2038 3584 2456 3584 
Q 2700 3584 2940 3529 
Q 3181 3475 3431 3366 
z
" transform="scale(0.015625)"/>
      <path id="DejaVuSans-Oblique-6f" d="M 1625 -91 
Q 1009 -91 651 289 
Q 294 669 294 1325 
Q 294 1706 417 2101 
Q 541 2497 738 2766 
Q 1047 3184 1428 3384 
Q 1809 3584 2291 3584 
Q 2888 3584 3255 3212 
Q 3622 2841 3622 2241 
Q 3622 1825 3500 1412 
Q 3378 1000 3181 728 
Q 2875 309 2494 109 
Q 2113 -91 1625 -91 
z
M 891 1344 
Q 891 869 1089 633 
Q 1288 397 1691 397 
Q 2269 397 2648 901 
Q 3028 1406 3028 2181 
Q 3028 2634 2825 2865 
Q 2622 3097 2228 3097 
Q 1903 3097 1650 2945 
Q 1397 2794 1197 2484 
Q 1050 2253 970 1956 
Q 891 1659 891 1344 
z
" transform="scale(0.015625)"/>
      <path id="DejaVuSans-Oblique-72" d="M 2853 2969 
Q 2766 3016 2653 3041 
Q 2541 3066 2413 3066 
Q 1953 3066 1609 2717 
Q 1266 2369 1153 1784 
L 800 0 
L 225 0 
L 909 3500 
L 1484 3500 
L 1375 2956 
Q 1603 3259 1920 3421 
Q 2238 3584 2597 3584 
Q 2691 3584 2781 3573 
Q 2872 3563 2963 3538 
L 2853 2969 
z
" transform="scale(0.015625)"/>
     </defs>
     <use xlink:href="#DejaVuSans-Oblique-63"/>
     <use xlink:href="#DejaVuSans-Oblique-6f" transform="translate(54.980469 0)"/>
     <use xlink:href="#DejaVuSans-Oblique-72" transform="translate(116.162109 0)"/>
     <use xlink:href="#DejaVuSans-Oblique-65" transform="translate(157.275391 0)"/>
    </g>
   </g>
   <g id="line2d_3">
    <path d="M 754.8 518.869091 
L 754.8 581.978182 
" clip-path="url(#pfd6205ca1c)" style="fill: none; stroke: #888888; stroke-width: 0.8; stroke-linecap: square"/>
   </g>
   <g id="text_3">
    <!-- I/O &amp; structures -->
    <g style="fill: #444444" transform="translate(703.350469 609.332514) scale(0.13 -0.13)">
     <defs>
      <path id="DejaVuSans-Oblique-49" d="M 1081 4666 
L 1716 4666 
L 806 0 
L 172 0 
L 1081 4666 
z
" transform="scale(0.015625)"/>
      <path id="DejaVuSans-Oblique-2f" d="M 2175 4666 
L 2731 4666 
L 84 -594 
L -469 -594 
L 2175 4666 
z
" transform="scale(0.015625)"/>
      <path id="DejaVuSans-Oblique-4f" d="M 2919 4238 
Q 2400 4238 2003 3986 
Q 1606 3734 1313 3219 
Q 1125 2891 1026 2522 
Q 928 2153 928 1778 
Q 928 1128 1239 775 
Q 1550 422 2119 422 
Q 2631 422 3032 676 
Q 3434 931 3719 1434 
Q 3909 1772 4009 2142 
Q 4109 2513 4109 2881 
Q 4109 3528 3796 3883 
Q 3484 4238 2919 4238 
z
M 2100 -91 
Q 1241 -91 748 418 
Q 256 928 256 1813 
Q 256 2319 448 2847 
Q 641 3375 978 3788 
Q 1375 4272 1862 4511 
Q 2350 4750 2938 4750 
Q 3794 4750 4287 4245 
Q 4781 3741 4781 2869 
Q 4781 2331 4593 1812 
Q 4406 1294 4056 872 
Q 3656 384 3173 146 
Q 2691 -91 2100 -91 
z
" transform="scale(0.015625)"/>
      <path id="DejaVuSans-Oblique-20" transform="scale(0.015625)"/>
      <path id="DejaVuSans-Oblique-26" d="M 3022 813 
L 1691 2509 
Q 1313 2234 1117 1925 
Q 922 1616 922 1294 
Q 922 897 1189 656 
Q 1456 416 1900 416 
Q 2194 416 2480 517 
Q 2766 619 3022 813 
z
M 4709 2503 
Q 4569 2006 4339 1593 
Q 4109 1181 3788 844 
L 4441 0 
L 3653 0 
L 3322 434 
Q 2991 175 2609 42 
Q 2228 -91 1813 -91 
Q 1122 -91 711 250 
Q 300 591 300 1153 
Q 300 1634 589 2062 
Q 878 2491 1447 2853 
Q 1350 2997 1304 3145 
Q 1259 3294 1259 3463 
Q 1259 3675 1331 3865 
Q 1403 4056 1538 4213 
Q 1753 4469 2078 4609 
Q 2403 4750 2778 4750 
Q 3022 4750 3269 4694 
Q 3516 4638 3769 4525 
L 3659 3956 
Q 3425 4103 3192 4179 
Q 2959 4256 2741 4256 
Q 2353 4256 2111 4054 
Q 1869 3853 1869 3541 
Q 1869 3403 1928 3268 
Q 1988 3134 2203 2859 
L 3475 1234 
Q 3709 1481 3875 1801 
Q 4041 2122 4128 2503 
L 4709 2503 
z
" transform="scale(0.015625)"/>
      <path id="DejaVuSans-Oblique-73" d="M 3200 3397 
L 3091 2853 
Q 2863 2978 2609 3040 
Q 2356 3103 2088 3103 
Q 1634 3103 1373 2948 
Q 1113 2794 1113 2528 
Q 1113 2219 1719 2053 
Q 1766 2041 1788 2034 
L 1972 1978 
Q 2547 1819 2739 1644 
Q 2931 1469 2931 1166 
Q 2931 609 2489 259 
Q 2047 -91 1331 -91 
Q 1053 -91 747 -37 
Q 441 16 72 128 
L 184 722 
Q 500 559 806 475 
Q 1113 391 1394 391 
Q 1816 391 2080 572 
Q 2344 753 2344 1031 
Q 2344 1331 1650 1516 
L 1591 1531 
L 1394 1581 
Q 956 1697 753 1886 
Q 550 2075 550 2369 
Q 550 2928 970 3256 
Q 1391 3584 2113 3584 
Q 2397 3584 2667 3537 
Q 2938 3491 3200 3397 
z
" transform="scale(0.015625)"/>
      <path id="DejaVuSans-Oblique-74" d="M 2706 3500 
L 2619 3053 
L 1472 3053 
L 1100 1153 
Q 1081 1047 1072 975 
Q 1063 903 1063 863 
Q 1063 663 1183 572 
Q 1303 481 1569 481 
L 2150 481 
L 2053 0 
L 1503 0 
Q 991 0 739 200 
Q 488 400 488 806 
Q 488 878 497 964 
Q 506 1050 525 1153 
L 897 3053 
L 409 3053 
L 500 3500 
L 978 3500 
L 1172 4494 
L 1747 4494 
L 1556 3500 
L 2706 3500 
z
" transform="scale(0.015625)"/>
     </defs>
     <use xlink:href="#DejaVuSans-Oblique-49"/>
     <use xlink:href="#DejaVuSans-Oblique-2f" transform="translate(29.492188 0)"/>
     <use xlink:href="#DejaVuSans-Oblique-4f" transform="translate(63.183594 0)"/>
     <use xlink:href="#DejaVuSans-Oblique-20" transform="translate(141.894531 0)"/>
     <use xlink:href="#DejaVuSans-Oblique-26" transform="translate(173.681641 0)"/>
     <use xlink:href="#DejaVuSans-Oblique-20" transform="translate(251.660156 0)"/>
     <use xlink:href="#DejaVuSans-Oblique-73" transform="translate(283.447266 0)"/>
     <use xlink:href="#DejaVuSans-Oblique-74" transform="translate(335.546875 0)"/>
     <use xlink:href="#DejaVuSans-Oblique-72" transform="translate(374.755859 0)"/>
     <use xlink:href="#DejaVuSans-Oblique-75" transform="translate(415.869141 0)"/>
     <use xlink:href="#DejaVuSans-Oblique-63" transform="translate(479.248047 0)"/>
     <use xlink:href="#DejaVuSans-Oblique-74" transform="translate(534.228516 0)"/>
     <use xlink:href="#DejaVuSans-Oblique-75" transform="translate(573.4375 0)"/>
     <use xlink:href="#DejaVuSans-Oblique-72" transform="translate(636.816406 0)"/>
     <use xlink:href="#DejaVuSans-Oblique-65" transform="translate(677.929688 0)"/>
     <use xlink:href="#DejaVuSans-Oblique-73" transform="translate(739.453125 0)"/>
    </g>
   </g>
   <g id="line2d_4">
    <path d="M 856.745455 518.869091 
L 856.745455 581.978182 
" clip-path="url(#pfd6205ca1c)" style="fill: none; stroke: #888888; stroke-width: 0.8; stroke-linecap: square"/>
   </g>
   <g id="text_4">
    <!-- analysis &amp; viz -->
    <g style="fill: #444444" transform="translate(812.16358 609.332514) scale(0.13 -0.13)">
     <defs>
      <path id="DejaVuSans-Oblique-79" d="M 1588 -325 
Q 1188 -997 936 -1164 
Q 684 -1331 294 -1331 
L -159 -1331 
L -63 -850 
L 269 -850 
Q 509 -850 678 -719 
Q 847 -588 1056 -206 
L 1234 128 
L 459 3500 
L 1069 3500 
L 1650 819 
L 3256 3500 
L 3859 3500 
L 1588 -325 
z
" transform="scale(0.015625)"/>
      <path id="DejaVuSans-Oblique-69" d="M 1172 4863 
L 1747 4863 
L 1606 4134 
L 1031 4134 
L 1172 4863 
z
M 909 3500 
L 1484 3500 
L 800 0 
L 225 0 
L 909 3500 
z
" transform="scale(0.015625)"/>
      <path id="DejaVuSans-Oblique-76" d="M 459 3500 
L 1069 3500 
L 1581 525 
L 3256 3500 
L 3866 3500 
L 1875 0 
L 1100 0 
L 459 3500 
z
" transform="scale(0.015625)"/>
      <path id="DejaVuSans-Oblique-7a" d="M 744 3500 
L 3475 3500 
L 3372 2975 
L 738 459 
L 2913 459 
L 2822 0 
L -19 0 
L 84 525 
L 2719 3041 
L 653 3041 
L 744 3500 
z
" transform="scale(0.015625)"/>
     </defs>
     <use xlink:href="#DejaVuSans-Oblique-61"/>
     <use xlink:href="#DejaVuSans-Oblique-6e" transform="translate(61.279297 0)"/>
     <use xlink:href="#DejaVuSans-Oblique-61" transform="translate(124.658203 0)"/>
     <use xlink:href="#DejaVuSans-Oblique-6c" transform="translate(185.9375 0)"/>
     <use xlink:href="#DejaVuSans-Oblique-79" transform="translate(213.720703 0)"/>
     <use xlink:href="#DejaVuSans-Oblique-73" transform="translate(272.900391 0)"/>
     <use xlink:href="#DejaVuSans-Oblique-69" transform="translate(325 0)"/>
     <use xlink:href="#DejaVuSans-Oblique-73" transform="translate(352.783203 0)"/>
     <use xlink:href="#DejaVuSans-Oblique-20" transform="translate(404.882812 0)"/>
     <use xlink:href="#DejaVuSans-Oblique-26" transform="translate(436.669922 0)"/>
     <use xlink:href="#DejaVuSans-Oblique-20" transform="translate(514.648438 0)"/>
     <use xlink:href="#DejaVuSans-Oblique-76" transform="translate(546.435547 0)"/>
     <use xlink:href="#DejaVuSans-Oblique-69" transform="translate(605.615234 0)"/>
     <use xlink:href="#DejaVuSans-Oblique-7a" transform="translate(633.398438 0)"/>
    </g>
   </g>
   <g id="text_5">
    <!-- clabtoolkit ecosystem -->
    <g style="fill: #222222" transform="translate(325.88103 36.875753) scale(0.27 -0.27)">
     <defs>
      <path id="DejaVuSans-Bold-63" d="M 3366 3391 
L 3366 2478 
Q 3138 2634 2908 2709 
Q 2678 2784 2431 2784 
Q 1963 2784 1702 2511 
Q 1441 2238 1441 1747 
Q 1441 1256 1702 982 
Q 1963 709 2431 709 
Q 2694 709 2930 787 
Q 3166 866 3366 1019 
L 3366 103 
Q 3103 6 2833 -42 
Q 2563 -91 2291 -91 
Q 1344 -91 809 395 
Q 275 881 275 1747 
Q 275 2613 809 3098 
Q 1344 3584 2291 3584 
Q 2566 3584 2833 3536 
Q 3100 3488 3366 3391 
z
" transform="scale(0.015625)"/>
      <path id="DejaVuSans-Bold-6c" d="M 538 4863 
L 1656 4863 
L 1656 0 
L 538 0 
L 538 4863 
z
" transform="scale(0.015625)"/>
      <path id="DejaVuSans-Bold-61" d="M 2106 1575 
Q 1756 1575 1579 1456 
Q 1403 1338 1403 1106 
Q 1403 894 1545 773 
Q 1688 653 1941 653 
Q 2256 653 2472 879 
Q 2688 1106 2688 1447 
L 2688 1575 
L 2106 1575 
z
M 3816 1997 
L 3816 0 
L 2688 0 
L 2688 519 
Q 2463 200 2181 54 
Q 1900 -91 1497 -91 
Q 953 -91 614 226 
Q 275 544 275 1050 
Q 275 1666 698 1953 
Q 1122 2241 2028 2241 
L 2688 2241 
L 2688 2328 
Q 2688 2594 2478 2717 
Q 2269 2841 1825 2841 
Q 1466 2841 1156 2769 
Q 847 2697 581 2553 
L 581 3406 
Q 941 3494 1303 3539 
Q 1666 3584 2028 3584 
Q 2975 3584 3395 3211 
Q 3816 2838 3816 1997 
z
" transform="scale(0.015625)"/>
      <path id="DejaVuSans-Bold-62" d="M 2400 722 
Q 2759 722 2948 984 
Q 3138 1247 3138 1747 
Q 3138 2247 2948 2509 
Q 2759 2772 2400 2772 
Q 2041 2772 1848 2508 
Q 1656 2244 1656 1747 
Q 1656 1250 1848 986 
Q 2041 722 2400 722 
z
M 1656 2988 
Q 1888 3294 2169 3439 
Q 2450 3584 2816 3584 
Q 3463 3584 3878 3070 
Q 4294 2556 4294 1747 
Q 4294 938 3878 423 
Q 3463 -91 2816 -91 
Q 2450 -91 2169 54 
Q 1888 200 1656 506 
L 1656 0 
L 538 0 
L 538 4863 
L 1656 4863 
L 1656 2988 
z
" transform="scale(0.015625)"/>
      <path id="DejaVuSans-Bold-74" d="M 1759 4494 
L 1759 3500 
L 2913 3500 
L 2913 2700 
L 1759 2700 
L 1759 1216 
Q 1759 972 1856 886 
Q 1953 800 2241 800 
L 2816 800 
L 2816 0 
L 1856 0 
Q 1194 0 917 276 
Q 641 553 641 1216 
L 641 2700 
L 84 2700 
L 84 3500 
L 641 3500 
L 641 4494 
L 1759 4494 
z
" transform="scale(0.015625)"/>
      <path id="DejaVuSans-Bold-6f" d="M 2203 2784 
Q 1831 2784 1636 2517 
Q 1441 2250 1441 1747 
Q 1441 1244 1636 976 
Q 1831 709 2203 709 
Q 2569 709 2762 976 
Q 2956 1244 2956 1747 
Q 2956 2250 2762 2517 
Q 2569 2784 2203 2784 
z
M 2203 3584 
Q 3106 3584 3614 3096 
Q 4122 2609 4122 1747 
Q 4122 884 3614 396 
Q 3106 -91 2203 -91 
Q 1297 -91 786 396 
Q 275 884 275 1747 
Q 275 2609 786 3096 
Q 1297 3584 2203 3584 
z
" transform="scale(0.015625)"/>
      <path id="DejaVuSans-Bold-6b" d="M 538 4863 
L 1656 4863 
L 1656 2216 
L 2944 3500 
L 4244 3500 
L 2534 1894 
L 4378 0 
L 3022 0 
L 1656 1459 
L 1656 0 
L 538 0 
L 538 4863 
z
" transform="scale(0.015625)"/>
      <path id="DejaVuSans-Bold-69" d="M 538 3500 
L 1656 3500 
L 1656 0 
L 538 0 
L 538 3500 
z
M 538 4863 
L 1656 4863 
L 1656 3950 
L 538 3950 
L 538 4863 
z
" transform="scale(0.015625)"/>
      <path id="DejaVuSans-Bold-20" transform="scale(0.015625)"/>
      <path id="DejaVuSans-Bold-65" d="M 4031 1759 
L 4031 1441 
L 1416 1441 
Q 1456 1047 1700 850 
Q 1944 653 2381 653 
Q 2734 653 3104 758 
Q 3475 863 3866 1075 
L 3866 213 
Q 3469 63 3072 -14 
Q 2675 -91 2278 -91 
Q 1328 -91 801 392 
Q 275 875 275 1747 
Q 275 2603 792 3093 
Q 1309 3584 2216 3584 
Q 3041 3584 3536 3087 
Q 4031 2591 4031 1759 
z
M 2881 2131 
Q 2881 2450 2695 2645 
Q 2509 2841 2209 2841 
Q 1884 2841 1681 2658 
Q 1478 2475 1428 2131 
L 2881 2131 
z
" transform="scale(0.015625)"/>
      <path id="DejaVuSans-Bold-73" d="M 3272 3391 
L 3272 2541 
Q 2913 2691 2578 2766 
Q 2244 2841 1947 2841 
Q 1628 2841 1473 2761 
Q 1319 2681 1319 2516 
Q 1319 2381 1436 2309 
Q 1553 2238 1856 2203 
L 2053 2175 
Q 2913 2066 3209 1816 
Q 3506 1566 3506 1031 
Q 3506 472 3093 190 
Q 2681 -91 1863 -91 
Q 1516 -91 1145 -36 
Q 775 19 384 128 
L 384 978 
Q 719 816 1070 734 
Q 1422 653 1784 653 
Q 2113 653 2278 743 
Q 2444 834 2444 1013 
Q 2444 1163 2330 1236 
Q 2216 1309 1875 1350 
L 1678 1375 
Q 931 1469 631 1722 
Q 331 1975 331 2491 
Q 331 3047 712 3315 
Q 1094 3584 1881 3584 
Q 2191 3584 2531 3537 
Q 2872 3491 3272 3391 
z
" transform="scale(0.015625)"/>
      <path id="DejaVuSans-Bold-79" d="M 78 3500 
L 1197 3500 
L 2138 1125 
L 2938 3500 
L 4056 3500 
L 2584 -331 
Q 2363 -916 2067 -1148 
Q 1772 -1381 1288 -1381 
L 641 -1381 
L 641 -647 
L 991 -647 
Q 1275 -647 1404 -556 
Q 1534 -466 1606 -231 
L 1638 -134 
L 78 3500 
z
" transform="scale(0.015625)"/>
      <path id="DejaVuSans-Bold-6d" d="M 3781 2919 
Q 3994 3244 4286 3414 
Q 4578 3584 4928 3584 
Q 5531 3584 5847 3212 
Q 6163 2841 6163 2131 
L 6163 0 
L 5038 0 
L 5038 1825 
Q 5041 1866 5042 1909 
Q 5044 1953 5044 2034 
Q 5044 2406 4934 2573 
Q 4825 2741 4581 2741 
Q 4263 2741 4089 2478 
Q 3916 2216 3909 1719 
L 3909 0 
L 2784 0 
L 2784 1825 
Q 2784 2406 2684 2573 
Q 2584 2741 2328 2741 
Q 2006 2741 1831 2477 
Q 1656 2213 1656 1722 
L 1656 0 
L 531 0 
L 531 3500 
L 1656 3500 
L 1656 2988 
Q 1863 3284 2130 3434 
Q 2397 3584 2719 3584 
Q 3081 3584 3359 3409 
Q 3638 3234 3781 2919 
z
" transform="scale(0.015625)"/>
     </defs>
     <use xlink:href="#DejaVuSans-Bold-63"/>
     <use xlink:href="#DejaVuSans-Bold-6c" transform="translate(59.277344 0)"/>
     <use xlink:href="#DejaVuSans-Bold-61" transform="translate(93.554688 0)"/>
     <use xlink:href="#DejaVuSans-Bold-62" transform="translate(161.035156 0)"/>
     <use xlink:href="#DejaVuSans-Bold-74" transform="translate(232.617188 0)"/>
     <use xlink:href="#DejaVuSans-Bold-6f" transform="translate(280.419922 0)"/>
     <use xlink:href="#DejaVuSans-Bold-6f" transform="translate(349.121094 0)"/>
     <use xlink:href="#DejaVuSans-Bold-6c" transform="translate(417.822266 0)"/>
     <use xlink:href="#DejaVuSans-Bold-6b" transform="translate(452.099609 0)"/>
     <use xlink:href="#DejaVuSans-Bold-69" transform="translate(518.603516 0)"/>
     <use xlink:href="#DejaVuSans-Bold-74" transform="translate(552.880859 0)"/>
     <use xlink:href="#DejaVuSans-Bold-20" transform="translate(600.683594 0)"/>
     <use xlink:href="#DejaVuSans-Bold-65" transform="translate(635.498047 0)"/>
     <use xlink:href="#DejaVuSans-Bold-63" transform="translate(703.320312 0)"/>
     <use xlink:href="#DejaVuSans-Bold-6f" transform="translate(762.597656 0)"/>
     <use xlink:href="#DejaVuSans-Bold-73" transform="translate(831.298828 0)"/>
     <use xlink:href="#DejaVuSans-Bold-79" transform="translate(890.820312 0)"/>
     <use xlink:href="#DejaVuSans-Bold-73" transform="translate(956.005859 0)"/>
     <use xlink:href="#DejaVuSans-Bold-74" transform="translate(1015.527344 0)"/>
     <use xlink:href="#DejaVuSans-Bold-65" transform="translate(1063.330078 0)"/>
     <use xlink:href="#DejaVuSans-Bold-6d" transform="translate(1131.152344 0)"/>
    </g>
   </g>
   <g id="text_6">
    <!-- a Python toolkit for connectomics, BIDS, and neuroimaging analysis -->
    <g style="fill: #666666" transform="translate(271.892202 69.041733) scale(0.13 -0.13)">
     <defs>
      <path id="DejaVuSans-Oblique-50" d="M 1081 4666 
L 2541 4666 
Q 3178 4666 3512 4369 
Q 3847 4072 3847 3500 
Q 3847 2731 3353 2303 
Q 2859 1875 1966 1875 
L 1172 1875 
L 806 0 
L 172 0 
L 1081 4666 
z
M 1613 4147 
L 1275 2394 
L 2069 2394 
Q 2606 2394 2893 2669 
Q 3181 2944 3181 3456 
Q 3181 3784 2986 3965 
Q 2791 4147 2438 4147 
L 1613 4147 
z
" transform="scale(0.015625)"/>
      <path id="DejaVuSans-Oblique-68" d="M 3566 2113 
L 3156 0 
L 2578 0 
L 2988 2091 
Q 3016 2238 3031 2350 
Q 3047 2463 3047 2528 
Q 3047 2791 2881 2937 
Q 2716 3084 2419 3084 
Q 1956 3084 1617 2771 
Q 1278 2459 1178 1941 
L 800 0 
L 225 0 
L 1172 4863 
L 1747 4863 
L 1375 2950 
Q 1594 3244 1934 3414 
Q 2275 3584 2650 3584 
Q 3113 3584 3367 3334 
Q 3622 3084 3622 2631 
Q 3622 2519 3608 2391 
Q 3594 2263 3566 2113 
z
" transform="scale(0.015625)"/>
      <path id="DejaVuSans-Oblique-6b" d="M 1172 4863 
L 1747 4863 
L 1197 2028 
L 3169 3500 
L 3916 3500 
L 1716 1825 
L 3322 0 
L 2625 0 
L 1131 1709 
L 800 0 
L 225 0 
L 1172 4863 
z
" transform="scale(0.015625)"/>
      <path id="DejaVuSans-Oblique-66" d="M 3059 4863 
L 2969 4384 
L 2419 4384 
Q 2106 4384 1964 4261 
Q 1822 4138 1753 3809 
L 1691 3500 
L 2638 3500 
L 2553 3053 
L 1606 3053 
L 1013 0 
L 434 0 
L 1031 3053 
L 481 3053 
L 563 3500 
L 1113 3500 
L 1159 3744 
Q 1278 4363 1576 4613 
Q 1875 4863 2516 4863 
L 3059 4863 
z
" transform="scale(0.015625)"/>
      <path id="DejaVuSans-Oblique-6d" d="M 5747 2113 
L 5338 0 
L 4763 0 
L 5166 2094 
Q 5191 2228 5203 2325 
Q 5216 2422 5216 2491 
Q 5216 2772 5059 2928 
Q 4903 3084 4622 3084 
Q 4203 3084 3875 2770 
Q 3547 2456 3450 1953 
L 3066 0 
L 2491 0 
L 2900 2094 
Q 2925 2209 2937 2307 
Q 2950 2406 2950 2484 
Q 2950 2769 2794 2926 
Q 2638 3084 2363 3084 
Q 1938 3084 1609 2770 
Q 1281 2456 1184 1953 
L 800 0 
L 225 0 
L 909 3500 
L 1484 3500 
L 1375 2956 
Q 1609 3263 1923 3423 
Q 2238 3584 2597 3584 
Q 2978 3584 3223 3384 
Q 3469 3184 3519 2828 
Q 3781 3197 4126 3390 
Q 4472 3584 4856 3584 
Q 5306 3584 5551 3325 
Q 5797 3066 5797 2591 
Q 5797 2488 5784 2364 
Q 5772 2241 5747 2113 
z
" transform="scale(0.015625)"/>
      <path id="DejaVuSans-Oblique-2c" d="M 575 794 
L 1234 794 
L 1131 256 
L 422 -744 
L 19 -744 
L 469 256 
L 575 794 
z
" transform="scale(0.015625)"/>
      <path id="DejaVuSans-Oblique-42" d="M 1081 4666 
L 2694 4666 
Q 3350 4666 3675 4422 
Q 4000 4178 4000 3688 
Q 4000 3238 3720 2911 
Q 3441 2584 2988 2516 
Q 3375 2428 3569 2181 
Q 3763 1934 3763 1522 
Q 3763 819 3242 409 
Q 2722 0 1819 0 
L 172 0 
L 1081 4666 
z
M 1234 2228 
L 903 519 
L 1919 519 
Q 2491 519 2800 781 
Q 3109 1044 3109 1522 
Q 3109 1891 2904 2059 
Q 2700 2228 2247 2228 
L 1234 2228 
z
M 1606 4147 
L 1331 2741 
L 2272 2741 
Q 2775 2741 3058 2959 
Q 3341 3178 3341 3566 
Q 3341 3869 3150 4008 
Q 2959 4147 2541 4147 
L 1606 4147 
z
" transform="scale(0.015625)"/>
      <path id="DejaVuSans-Oblique-44" d="M 1081 4666 
L 2438 4666 
Q 3519 4666 4070 4208 
Q 4622 3750 4622 2847 
Q 4622 2250 4412 1698 
Q 4203 1147 3834 769 
Q 3463 381 2891 190 
Q 2319 0 1538 0 
L 172 0 
L 1081 4666 
z
M 1613 4147 
L 909 519 
L 1734 519 
Q 2794 519 3375 1128 
Q 3956 1738 3956 2847 
Q 3956 3519 3581 3833 
Q 3206 4147 2406 4147 
L 1613 4147 
z
" transform="scale(0.015625)"/>
      <path id="DejaVuSans-Oblique-53" d="M 3859 4513 
L 3738 3897 
Q 3422 4066 3111 4152 
Q 2800 4238 2509 4238 
Q 1944 4238 1609 3991 
Q 1275 3744 1275 3334 
Q 1275 3109 1398 2989 
Q 1522 2869 2034 2731 
L 2413 2638 
Q 3053 2472 3303 2217 
Q 3553 1963 3553 1503 
Q 3553 797 2998 353 
Q 2444 -91 1538 -91 
Q 1166 -91 791 -17 
Q 416 56 38 206 
L 166 856 
Q 513 641 861 531 
Q 1209 422 1556 422 
Q 2147 422 2503 684 
Q 2859 947 2859 1369 
Q 2859 1650 2717 1795 
Q 2575 1941 2106 2059 
L 1728 2156 
Q 1081 2325 845 2545 
Q 609 2766 609 3163 
Q 609 3859 1145 4304 
Q 1681 4750 2541 4750 
Q 2875 4750 3203 4690 
Q 3531 4631 3859 4513 
z
" transform="scale(0.015625)"/>
      <path id="DejaVuSans-Oblique-64" d="M 2675 525 
Q 2444 222 2128 65 
Q 1813 -91 1428 -91 
Q 903 -91 598 267 
Q 294 625 294 1247 
Q 294 1766 478 2236 
Q 663 2706 1013 3078 
Q 1244 3325 1534 3454 
Q 1825 3584 2144 3584 
Q 2481 3584 2739 3421 
Q 2997 3259 3138 2956 
L 3513 4863 
L 4091 4863 
L 3144 0 
L 2566 0 
L 2675 525 
z
M 891 1350 
Q 891 897 1095 644 
Q 1300 391 1663 391 
Q 1931 391 2161 520 
Q 2391 650 2566 903 
Q 2750 1166 2856 1509 
Q 2963 1853 2963 2188 
Q 2963 2622 2758 2865 
Q 2553 3109 2194 3109 
Q 1922 3109 1687 2981 
Q 1453 2853 1288 2613 
Q 1106 2353 998 2009 
Q 891 1666 891 1350 
z
" transform="scale(0.015625)"/>
     </defs>
     <use xlink:href="#DejaVuSans-Oblique-61"/>
     <use xlink:href="#DejaVuSans-Oblique-20" transform="translate(61.279297 0)"/>
     <use xlink:href="#DejaVuSans-Oblique-50" transform="translate(93.066406 0)"/>
     <use xlink:href="#DejaVuSans-Oblique-79" transform="translate(153.369141 0)"/>
     <use xlink:href="#DejaVuSans-Oblique-74" transform="translate(212.548828 0)"/>
     <use xlink:href="#DejaVuSans-Oblique-68" transform="translate(251.757812 0)"/>
     <use xlink:href="#DejaVuSans-Oblique-6f" transform="translate(315.136719 0)"/>
     <use xlink:href="#DejaVuSans-Oblique-6e" transform="translate(376.318359 0)"/>
     <use xlink:href="#DejaVuSans-Oblique-20" transform="translate(439.697266 0)"/>
     <use xlink:href="#DejaVuSans-Oblique-74" transform="translate(471.484375 0)"/>
     <use xlink:href="#DejaVuSans-Oblique-6f" transform="translate(510.693359 0)"/>
     <use xlink:href="#DejaVuSans-Oblique-6f" transform="translate(571.875 0)"/>
     <use xlink:href="#DejaVuSans-Oblique-6c" transform="translate(633.056641 0)"/>
     <use xlink:href="#DejaVuSans-Oblique-6b" transform="translate(660.839844 0)"/>
     <use xlink:href="#DejaVuSans-Oblique-69" transform="translate(718.75 0)"/>
     <use xlink:href="#DejaVuSans-Oblique-74" transform="translate(746.533203 0)"/>
     <use xlink:href="#DejaVuSans-Oblique-20" transform="translate(785.742188 0)"/>
     <use xlink:href="#DejaVuSans-Oblique-66" transform="translate(817.529297 0)"/>
     <use xlink:href="#DejaVuSans-Oblique-6f" transform="translate(852.734375 0)"/>
     <use xlink:href="#DejaVuSans-Oblique-72" transform="translate(913.916016 0)"/>
     <use xlink:href="#DejaVuSans-Oblique-20" transform="translate(955.029297 0)"/>
     <use xlink:href="#DejaVuSans-Oblique-63" transform="translate(986.816406 0)"/>
     <use xlink:href="#DejaVuSans-Oblique-6f" transform="translate(1041.796875 0)"/>
     <use xlink:href="#DejaVuSans-Oblique-6e" transform="translate(1102.978516 0)"/>
     <use xlink:href="#DejaVuSans-Oblique-6e" transform="translate(1166.357422 0)"/>
     <use xlink:href="#DejaVuSans-Oblique-65" transform="translate(1229.736328 0)"/>
     <use xlink:href="#DejaVuSans-Oblique-63" transform="translate(1291.259766 0)"/>
     <use xlink:href="#DejaVuSans-Oblique-74" transform="translate(1346.240234 0)"/>
     <use xlink:href="#DejaVuSans-Oblique-6f" transform="translate(1385.449219 0)"/>
     <use xlink:href="#DejaVuSans-Oblique-6d" transform="translate(1446.630859 0)"/>
     <use xlink:href="#DejaVuSans-Oblique-69" transform="translate(1544.042969 0)"/>
     <use xlink:href="#DejaVuSans-Oblique-63" transform="translate(1571.826172 0)"/>
     <use xlink:href="#DejaVuSans-Oblique-73" transform="translate(1626.806641 0)"/>
     <use xlink:href="#DejaVuSans-Oblique-2c" transform="translate(1678.90625 0)"/>
     <use xlink:href="#DejaVuSans-Oblique-20" transform="translate(1710.693359 0)"/>
     <use xlink:href="#DejaVuSans-Oblique-42" transform="translate(1742.480469 0)"/>
     <use xlink:href="#DejaVuSans-Oblique-49" transform="translate(1811.083984 0)"/>
     <use xlink:href="#DejaVuSans-Oblique-44" transform="translate(1840.576172 0)"/>
     <use xlink:href="#DejaVuSans-Oblique-53" transform="translate(1917.578125 0)"/>
     <use xlink:href="#DejaVuSans-Oblique-2c" transform="translate(1981.054688 0)"/>
     <use xlink:href="#DejaVuSans-Oblique-20" transform="translate(2012.841797 0)"/>
     <use xlink:href="#DejaVuSans-Oblique-61" transform="translate(2044.628906 0)"/>
     <use xlink:href="#DejaVuSans-Oblique-6e" transform="translate(2105.908203 0)"/>
     <use xlink:href="#DejaVuSans-Oblique-64" transform="translate(2169.287109 0)"/>
     <use xlink:href="#DejaVuSans-Oblique-20" transform="translate(2232.763672 0)"/>
     <use xlink:href="#DejaVuSans-Oblique-6e" transform="translate(2264.550781 0)"/>
     <use xlink:href="#DejaVuSans-Oblique-65" transform="translate(2327.929688 0)"/>
     <use xlink:href="#DejaVuSans-Oblique-75" transform="translate(2389.453125 0)"/>
     <use xlink:href="#DejaVuSans-Oblique-72" transform="translate(2452.832031 0)"/>
     <use xlink:href="#DejaVuSans-Oblique-6f" transform="translate(2493.945312 0)"/>
     <use xlink:href="#DejaVuSans-Oblique-69" transform="translate(2555.126953 0)"/>
     <use xlink:href="#DejaVuSans-Oblique-6d" transform="translate(2582.910156 0)"/>
     <use xlink:href="#DejaVuSans-Oblique-61" transform="translate(2680.322266 0)"/>
     <use xlink:href="#DejaVuSans-Oblique-67" transform="translate(2741.601562 0)"/>
     <use xlink:href="#DejaVuSans-Oblique-69" transform="translate(2805.078125 0)"/>
     <use xlink:href="#DejaVuSans-Oblique-6e" transform="translate(2832.861328 0)"/>
     <use xlink:href="#DejaVuSans-Oblique-67" transform="translate(2896.240234 0)"/>
     <use xlink:href="#DejaVuSans-Oblique-20" transform="translate(2959.716797 0)"/>
     <use xlink:href="#DejaVuSans-Oblique-61" transform="translate(2991.503906 0)"/>
     <use xlink:href="#DejaVuSans-Oblique-6e" transform="translate(3052.783203 0)"/>
     <use xlink:href="#DejaVuSans-Oblique-61" transform="translate(3116.162109 0)"/>
     <use xlink:href="#DejaVuSans-Oblique-6c" transform="translate(3177.441406 0)"/>
     <use xlink:href="#DejaVuSans-Oblique-79" transform="translate(3205.224609 0)"/>
     <use xlink:href="#DejaVuSans-Oblique-73" transform="translate(3264.404297 0)"/>
     <use xlink:href="#DejaVuSans-Oblique-69" transform="translate(3316.503906 0)"/>
     <use xlink:href="#DejaVuSans-Oblique-73" transform="translate(3344.287109 0)"/>
    </g>
   </g>
   <g id="text_7">
    <!-- Python -->
    <g style="fill: #306998" transform="translate(460.715795 460.597955) scale(0.16 -0.16)">
     <defs>
      <path id="DejaVuSans-Bold-50" d="M 588 4666 
L 2584 4666 
Q 3475 4666 3951 4270 
Q 4428 3875 4428 3144 
Q 4428 2409 3951 2014 
Q 3475 1619 2584 1619 
L 1791 1619 
L 1791 0 
L 588 0 
L 588 4666 
z
M 1791 3794 
L 1791 2491 
L 2456 2491 
Q 2806 2491 2997 2661 
Q 3188 2831 3188 3144 
Q 3188 3456 2997 3625 
Q 2806 3794 2456 3794 
L 1791 3794 
z
" transform="scale(0.015625)"/>
      <path id="DejaVuSans-Bold-68" d="M 4056 2131 
L 4056 0 
L 2931 0 
L 2931 347 
L 2931 1625 
Q 2931 2084 2911 2256 
Q 2891 2428 2841 2509 
Q 2775 2619 2662 2680 
Q 2550 2741 2406 2741 
Q 2056 2741 1856 2470 
Q 1656 2200 1656 1722 
L 1656 0 
L 538 0 
L 538 4863 
L 1656 4863 
L 1656 2988 
Q 1909 3294 2193 3439 
Q 2478 3584 2822 3584 
Q 3428 3584 3742 3212 
Q 4056 2841 4056 2131 
z
" transform="scale(0.015625)"/>
      <path id="DejaVuSans-Bold-6e" d="M 4056 2131 
L 4056 0 
L 2931 0 
L 2931 347 
L 2931 1631 
Q 2931 2084 2911 2256 
Q 2891 2428 2841 2509 
Q 2775 2619 2662 2680 
Q 2550 2741 2406 2741 
Q 2056 2741 1856 2470 
Q 1656 2200 1656 1722 
L 1656 0 
L 538 0 
L 538 3500 
L 1656 3500 
L 1656 2988 
Q 1909 3294 2193 3439 
Q 2478 3584 2822 3584 
Q 3428 3584 3742 3212 
Q 4056 2841 4056 2131 
z
" transform="scale(0.015625)"/>
     </defs>
     <use xlink:href="#DejaVuSans-Bold-50"/>
     <use xlink:href="#DejaVuSans-Bold-79" transform="translate(75.166016 0)"/>
     <use xlink:href="#DejaVuSans-Bold-74" transform="translate(140.351562 0)"/>
     <use xlink:href="#DejaVuSans-Bold-68" transform="translate(188.154297 0)"/>
     <use xlink:href="#DejaVuSans-Bold-6f" transform="translate(259.345703 0)"/>
     <use xlink:href="#DejaVuSans-Bold-6e" transform="translate(328.046875 0)"/>
    </g>
   </g>
   <g id="text_8">
    <!-- NumPy -->
    <g style="fill: #4d77cf" transform="translate(594.267763 459.698284) scale(0.12 -0.12)">
     <defs>
      <path id="DejaVuSans-Bold-4e" d="M 588 4666 
L 1931 4666 
L 3628 1466 
L 3628 4666 
L 4769 4666 
L 4769 0 
L 3425 0 
L 1728 3200 
L 1728 0 
L 588 0 
L 588 4666 
z
" transform="scale(0.015625)"/>
      <path id="DejaVuSans-Bold-75" d="M 500 1363 
L 500 3500 
L 1625 3500 
L 1625 3150 
Q 1625 2866 1622 2436 
Q 1619 2006 1619 1863 
Q 1619 1441 1641 1255 
Q 1663 1069 1716 984 
Q 1784 875 1895 815 
Q 2006 756 2150 756 
Q 2500 756 2700 1025 
Q 2900 1294 2900 1772 
L 2900 3500 
L 4019 3500 
L 4019 0 
L 2900 0 
L 2900 506 
Q 2647 200 2364 54 
Q 2081 -91 1741 -91 
Q 1134 -91 817 281 
Q 500 653 500 1363 
z
" transform="scale(0.015625)"/>
     </defs>
     <use xlink:href="#DejaVuSans-Bold-4e"/>
     <use xlink:href="#DejaVuSans-Bold-75" transform="translate(83.691406 0)"/>
     <use xlink:href="#DejaVuSans-Bold-6d" transform="translate(154.882812 0)"/>
     <use xlink:href="#DejaVuSans-Bold-50" transform="translate(259.082031 0)"/>
     <use xlink:href="#DejaVuSans-Bold-79" transform="translate(334.248047 0)"/>
    </g>
   </g>
   <g id="text_9">
    <!-- SciPy -->
    <g style="fill: #0054a6" transform="translate(550.036399 398.196201) scale(0.12 -0.12)">
     <defs>
      <path id="DejaVuSans-Bold-53" d="M 3834 4519 
L 3834 3531 
Q 3450 3703 3084 3790 
Q 2719 3878 2394 3878 
Q 1963 3878 1756 3759 
Q 1550 3641 1550 3391 
Q 1550 3203 1689 3098 
Q 1828 2994 2194 2919 
L 2706 2816 
Q 3484 2659 3812 2340 
Q 4141 2022 4141 1434 
Q 4141 663 3683 286 
Q 3225 -91 2284 -91 
Q 1841 -91 1394 -6 
Q 947 78 500 244 
L 500 1259 
Q 947 1022 1364 901 
Q 1781 781 2169 781 
Q 2563 781 2772 912 
Q 2981 1044 2981 1288 
Q 2981 1506 2839 1625 
Q 2697 1744 2272 1838 
L 1806 1941 
Q 1106 2091 782 2419 
Q 459 2747 459 3303 
Q 459 4000 909 4375 
Q 1359 4750 2203 4750 
Q 2588 4750 2994 4692 
Q 3400 4634 3834 4519 
z
" transform="scale(0.015625)"/>
     </defs>
     <use xlink:href="#DejaVuSans-Bold-53"/>
     <use xlink:href="#DejaVuSans-Bold-63" transform="translate(72.021484 0)"/>
     <use xlink:href="#DejaVuSans-Bold-69" transform="translate(131.298828 0)"/>
     <use xlink:href="#DejaVuSans-Bold-50" transform="translate(165.576172 0)"/>
     <use xlink:href="#DejaVuSans-Bold-79" transform="translate(240.742188 0)"/>
    </g>
   </g>
   <g id="text_10">
    <!-- nibabel -->
    <g style="fill: #2c8a99" transform="translate(467.56142 375.087614) scale(0.12 -0.12)">
     <use xlink:href="#DejaVuSans-Bold-6e"/>
     <use xlink:href="#DejaVuSans-Bold-69" transform="translate(71.191406 0)"/>
     <use xlink:href="#DejaVuSans-Bold-62" transform="translate(105.46875 0)"/>
     <use xlink:href="#DejaVuSans-Bold-61" transform="translate(177.050781 0)"/>
     <use xlink:href="#DejaVuSans-Bold-62" transform="translate(244.53125 0)"/>
     <use xlink:href="#DejaVuSans-Bold-65" transform="translate(316.113281 0)"/>
     <use xlink:href="#DejaVuSans-Bold-6c" transform="translate(383.935547 0)"/>
    </g>
   </g>
   <g id="text_11">
    <!-- pandas -->
    <g style="fill: #150458" transform="translate(392.386754 398.243076) scale(0.12 -0.12)">
     <defs>
      <path id="DejaVuSans-Bold-70" d="M 1656 506 
L 1656 -1331 
L 538 -1331 
L 538 3500 
L 1656 3500 
L 1656 2988 
Q 1888 3294 2169 3439 
Q 2450 3584 2816 3584 
Q 3463 3584 3878 3070 
Q 4294 2556 4294 1747 
Q 4294 938 3878 423 
Q 3463 -91 2816 -91 
Q 2450 -91 2169 54 
Q 1888 200 1656 506 
z
M 2400 2772 
Q 2041 2772 1848 2508 
Q 1656 2244 1656 1747 
Q 1656 1250 1848 986 
Q 2041 722 2400 722 
Q 2759 722 2948 984 
Q 3138 1247 3138 1747 
Q 3138 2247 2948 2509 
Q 2759 2772 2400 2772 
z
" transform="scale(0.015625)"/>
      <path id="DejaVuSans-Bold-64" d="M 2919 2988 
L 2919 4863 
L 4044 4863 
L 4044 0 
L 2919 0 
L 2919 506 
Q 2688 197 2409 53 
Q 2131 -91 1766 -91 
Q 1119 -91 703 423 
Q 288 938 288 1747 
Q 288 2556 703 3070 
Q 1119 3584 1766 3584 
Q 2128 3584 2408 3439 
Q 2688 3294 2919 2988 
z
M 2181 722 
Q 2541 722 2730 984 
Q 2919 1247 2919 1747 
Q 2919 2247 2730 2509 
Q 2541 2772 2181 2772 
Q 1825 2772 1636 2509 
Q 1447 2247 1447 1747 
Q 1447 1247 1636 984 
Q 1825 722 2181 722 
z
" transform="scale(0.015625)"/>
     </defs>
     <use xlink:href="#DejaVuSans-Bold-70"/>
     <use xlink:href="#DejaVuSans-Bold-61" transform="translate(71.582031 0)"/>
     <use xlink:href="#DejaVuSans-Bold-6e" transform="translate(139.0625 0)"/>
     <use xlink:href="#DejaVuSans-Bold-64" transform="translate(210.253906 0)"/>
     <use xlink:href="#DejaVuSans-Bold-61" transform="translate(281.835938 0)"/>
     <use xlink:href="#DejaVuSans-Bold-73" transform="translate(349.316406 0)"/>
    </g>
   </g>
   <g id="text_12">
    <!-- matplotlib -->
    <g style="fill: #11557c" transform="translate(332.156016 459.792034) scale(0.12 -0.12)">
     <use xlink:href="#DejaVuSans-Bold-6d"/>
     <use xlink:href="#DejaVuSans-Bold-61" transform="translate(104.199219 0)"/>
     <use xlink:href="#DejaVuSans-Bold-74" transform="translate(171.679688 0)"/>
     <use xlink:href="#DejaVuSans-Bold-70" transform="translate(219.482422 0)"/>
     <use xlink:href="#DejaVuSans-Bold-6c" transform="translate(291.064453 0)"/>
     <use xlink:href="#DejaVuSans-Bold-6f" transform="translate(325.341797 0)"/>
     <use xlink:href="#DejaVuSans-Bold-74" transform="translate(394.042969 0)"/>
     <use xlink:href="#DejaVuSans-Bold-6c" transform="translate(441.845703 0)"/>
     <use xlink:href="#DejaVuSans-Bold-69" transform="translate(476.123047 0)"/>
     <use xlink:href="#DejaVuSans-Bold-62" transform="translate(510.400391 0)"/>
    </g>
   </g>
   <g id="text_13">
    <!-- misctools -->
    <g style="fill: #b5651d" transform="translate(631.607826 441.388361) scale(0.12 -0.12)">
     <defs>
      <path id="DejaVuSans-BoldOblique-6d" d="M 4013 2919 
Q 4272 3241 4601 3412 
Q 4931 3584 5288 3584 
Q 5756 3584 6026 3326 
Q 6297 3069 6297 2619 
Q 6297 2525 6283 2404 
Q 6269 2284 6241 2131 
L 5825 0 
L 4697 0 
L 5050 1825 
L 5059 1872 
Q 5141 2259 5141 2369 
Q 5141 2541 5042 2641 
Q 4944 2741 4775 2741 
Q 4453 2741 4229 2477 
Q 4006 2213 3909 1722 
L 3572 0 
L 2444 0 
L 2803 1825 
Q 2850 2059 2869 2179 
Q 2888 2300 2888 2369 
Q 2888 2544 2791 2642 
Q 2694 2741 2522 2741 
Q 2213 2741 1980 2467 
Q 1747 2194 1656 1722 
L 1319 0 
L 197 0 
L 878 3500 
L 2003 3500 
L 1900 2988 
Q 2163 3284 2459 3434 
Q 2756 3584 3078 3584 
Q 3441 3584 3700 3398 
Q 3959 3213 4013 2919 
z
" transform="scale(0.015625)"/>
      <path id="DejaVuSans-BoldOblique-69" d="M 878 3500 
L 2003 3500 
L 1319 0 
L 197 0 
L 878 3500 
z
M 1141 4863 
L 2266 4863 
L 2088 3950 
L 959 3950 
L 1141 4863 
z
" transform="scale(0.015625)"/>
      <path id="DejaVuSans-BoldOblique-73" d="M 3584 3391 
L 3419 2522 
Q 3091 2678 2766 2759 
Q 2441 2841 2150 2841 
Q 1819 2841 1639 2755 
Q 1459 2669 1459 2509 
Q 1459 2416 1559 2359 
Q 1659 2303 1953 2241 
L 2156 2203 
Q 2834 2059 3106 1832 
Q 3378 1606 3378 1203 
Q 3378 594 2900 251 
Q 2422 -91 1563 -91 
Q 1203 -91 828 -34 
Q 453 22 63 134 
L 231 1013 
Q 534 834 879 743 
Q 1225 653 1588 653 
Q 1941 653 2119 737 
Q 2297 822 2297 984 
Q 2297 1097 2197 1159 
Q 2097 1222 1784 1288 
L 1581 1325 
Q 981 1450 725 1694 
Q 469 1938 469 2369 
Q 469 2953 911 3268 
Q 1353 3584 2175 3584 
Q 2534 3584 2882 3536 
Q 3231 3488 3584 3391 
z
" transform="scale(0.015625)"/>
      <path id="DejaVuSans-BoldOblique-63" d="M 3719 3391 
L 3541 2478 
Q 3316 2628 3097 2706 
Q 2878 2784 2669 2784 
Q 2122 2784 1775 2417 
Q 1428 2050 1428 1478 
Q 1428 1113 1643 911 
Q 1859 709 2253 709 
Q 2516 709 2769 787 
Q 3022 866 3250 1019 
L 3078 103 
Q 2800 6 2519 -42 
Q 2238 -91 1953 -91 
Q 1128 -91 683 279 
Q 238 650 238 1331 
Q 238 1759 402 2162 
Q 566 2566 872 2888 
Q 1213 3241 1653 3412 
Q 2094 3584 2669 3584 
Q 2934 3584 3196 3536 
Q 3459 3488 3719 3391 
z
" transform="scale(0.015625)"/>
      <path id="DejaVuSans-BoldOblique-74" d="M 2303 4494 
L 2113 3500 
L 3256 3500 
L 3097 2700 
L 1953 2700 
L 1666 1219 
Q 1653 1169 1648 1134 
Q 1644 1100 1644 1069 
Q 1644 925 1739 862 
Q 1834 800 2059 800 
L 2638 800 
L 2478 0 
L 1538 0 
Q 1031 0 765 212 
Q 500 425 500 825 
Q 500 913 509 1013 
Q 519 1113 538 1216 
L 825 2700 
L 275 2700 
L 428 3500 
L 984 3500 
L 1178 4494 
L 2303 4494 
z
" transform="scale(0.015625)"/>
      <path id="DejaVuSans-BoldOblique-6f" d="M 2400 2784 
Q 1966 2784 1684 2390 
Q 1403 1997 1403 1388 
Q 1403 1056 1554 882 
Q 1706 709 1997 709 
Q 2431 709 2712 1104 
Q 2994 1500 2994 2113 
Q 2994 2441 2842 2612 
Q 2691 2784 2400 2784 
z
M 2491 3584 
Q 3272 3584 3719 3187 
Q 4166 2791 4166 2106 
Q 4166 1709 4025 1336 
Q 3884 963 3616 653 
Q 3297 284 2862 96 
Q 2428 -91 1894 -91 
Q 1122 -91 676 306 
Q 231 703 231 1388 
Q 231 1781 375 2157 
Q 519 2534 788 2847 
Q 1100 3209 1533 3396 
Q 1966 3584 2491 3584 
z
" transform="scale(0.015625)"/>
      <path id="DejaVuSans-BoldOblique-6c" d="M 1141 4863 
L 2266 4863 
L 1319 0 
L 197 0 
L 1141 4863 
z
" transform="scale(0.015625)"/>
     </defs>
     <use xlink:href="#DejaVuSans-BoldOblique-6d"/>
     <use xlink:href="#DejaVuSans-BoldOblique-69" transform="translate(104.199219 0)"/>
     <use xlink:href="#DejaVuSans-BoldOblique-73" transform="translate(138.476562 0)"/>
     <use xlink:href="#DejaVuSans-BoldOblique-63" transform="translate(197.998047 0)"/>
     <use xlink:href="#DejaVuSans-BoldOblique-74" transform="translate(257.275391 0)"/>
     <use xlink:href="#DejaVuSans-BoldOblique-6f" transform="translate(305.078125 0)"/>
     <use xlink:href="#DejaVuSans-BoldOblique-6f" transform="translate(373.779297 0)"/>
     <use xlink:href="#DejaVuSans-BoldOblique-6c" transform="translate(442.480469 0)"/>
     <use xlink:href="#DejaVuSans-BoldOblique-73" transform="translate(476.757812 0)"/>
    </g>
   </g>
   <g id="text_14">
    <!-- bidstools -->
    <g style="fill: #b5651d" transform="translate(532.824893 340.215335) scale(0.12 -0.12)">
     <defs>
      <path id="DejaVuSans-BoldOblique-62" d="M 2597 2772 
Q 2166 2772 1892 2373 
Q 1619 1975 1619 1338 
Q 1619 1050 1773 886 
Q 1928 722 2203 722 
Q 2625 722 2900 1114 
Q 3175 1506 3175 2119 
Q 3175 2438 3026 2605 
Q 2878 2772 2597 2772 
z
M 1422 506 
L 1319 0 
L 197 0 
L 1141 4863 
L 2266 4863 
L 1900 2988 
Q 2156 3294 2437 3439 
Q 2719 3584 3053 3584 
Q 3644 3584 3987 3209 
Q 4331 2834 4331 2188 
Q 4331 1784 4211 1403 
Q 4091 1022 3866 709 
Q 3581 316 3223 112 
Q 2866 -91 2456 -91 
Q 2097 -91 1845 54 
Q 1594 200 1422 506 
z
" transform="scale(0.015625)"/>
      <path id="DejaVuSans-BoldOblique-64" d="M 1966 722 
Q 2397 722 2667 1119 
Q 2938 1516 2938 2156 
Q 2938 2447 2786 2609 
Q 2634 2772 2363 2772 
Q 1938 2772 1663 2380 
Q 1388 1988 1388 1375 
Q 1388 1056 1536 889 
Q 1684 722 1966 722 
z
M 3144 2988 
L 3506 4863 
L 4634 4863 
L 3688 0 
L 2559 0 
L 2663 506 
Q 2406 200 2125 54 
Q 1844 -91 1509 -91 
Q 919 -91 575 284 
Q 231 659 231 1306 
Q 231 1709 351 2090 
Q 472 2472 697 2784 
Q 981 3178 1339 3381 
Q 1697 3584 2106 3584 
Q 2466 3584 2717 3439 
Q 2969 3294 3144 2988 
z
" transform="scale(0.015625)"/>
     </defs>
     <use xlink:href="#DejaVuSans-BoldOblique-62"/>
     <use xlink:href="#DejaVuSans-BoldOblique-69" transform="translate(71.582031 0)"/>
     <use xlink:href="#DejaVuSans-BoldOblique-64" transform="translate(105.859375 0)"/>
     <use xlink:href="#DejaVuSans-BoldOblique-73" transform="translate(177.441406 0)"/>
     <use xlink:href="#DejaVuSans-BoldOblique-74" transform="translate(236.962891 0)"/>
     <use xlink:href="#DejaVuSans-BoldOblique-6f" transform="translate(284.765625 0)"/>
     <use xlink:href="#DejaVuSans-BoldOblique-6f" transform="translate(353.466797 0)"/>
     <use xlink:href="#DejaVuSans-BoldOblique-6c" transform="translate(422.167969 0)"/>
     <use xlink:href="#DejaVuSans-BoldOblique-73" transform="translate(456.445312 0)"/>
    </g>
   </g>
   <g id="text_15">
    <!-- plottools -->
    <g style="fill: #b5651d" transform="translate(391.445448 340.215335) scale(0.12 -0.12)">
     <defs>
      <path id="DejaVuSans-BoldOblique-70" d="M 1422 506 
L 1063 -1331 
L -63 -1331 
L 878 3500 
L 2003 3500 
L 1900 2988 
Q 2156 3294 2437 3439 
Q 2719 3584 3053 3584 
Q 3644 3584 3987 3209 
Q 4331 2834 4331 2188 
Q 4331 1784 4211 1403 
Q 4091 1022 3866 709 
Q 3581 316 3223 112 
Q 2866 -91 2456 -91 
Q 2097 -91 1845 54 
Q 1594 200 1422 506 
z
M 2597 2772 
Q 2166 2772 1892 2373 
Q 1619 1975 1619 1338 
Q 1619 1050 1773 886 
Q 1928 722 2203 722 
Q 2625 722 2900 1114 
Q 3175 1506 3175 2119 
Q 3175 2438 3026 2605 
Q 2878 2772 2597 2772 
z
" transform="scale(0.015625)"/>
     </defs>
     <use xlink:href="#DejaVuSans-BoldOblique-70"/>
     <use xlink:href="#DejaVuSans-BoldOblique-6c" transform="translate(71.582031 0)"/>
     <use xlink:href="#DejaVuSans-BoldOblique-6f" transform="translate(105.859375 0)"/>
     <use xlink:href="#DejaVuSans-BoldOblique-74" transform="translate(174.560547 0)"/>
     <use xlink:href="#DejaVuSans-BoldOblique-74" transform="translate(222.363281 0)"/>
     <use xlink:href="#DejaVuSans-BoldOblique-6f" transform="translate(270.166016 0)"/>
     <use xlink:href="#DejaVuSans-BoldOblique-6f" transform="translate(338.867188 0)"/>
     <use xlink:href="#DejaVuSans-BoldOblique-6c" transform="translate(407.568359 0)"/>
     <use xlink:href="#DejaVuSans-BoldOblique-73" transform="translate(441.845703 0)"/>
    </g>
   </g>
   <g id="text_16">
    <!-- colorstools -->
    <g style="fill: #b5651d" transform="translate(284.396577 441.388361) scale(0.12 -0.12)">
     <defs>
      <path id="DejaVuSans-BoldOblique-72" d="M 3291 2547 
Q 3175 2613 3034 2647 
Q 2894 2681 2731 2681 
Q 2303 2681 2020 2406 
Q 1738 2131 1638 1613 
L 1319 0 
L 197 0 
L 878 3500 
L 2003 3500 
L 1881 2900 
Q 2103 3231 2436 3407 
Q 2769 3584 3175 3584 
Q 3234 3584 3309 3578 
Q 3384 3572 3488 3559 
L 3291 2547 
z
" transform="scale(0.015625)"/>
     </defs>
     <use xlink:href="#DejaVuSans-BoldOblique-63"/>
     <use xlink:href="#DejaVuSans-BoldOblique-6f" transform="translate(59.277344 0)"/>
     <use xlink:href="#DejaVuSans-BoldOblique-6c" transform="translate(127.978516 0)"/>
     <use xlink:href="#DejaVuSans-BoldOblique-6f" transform="translate(162.255859 0)"/>
     <use xlink:href="#DejaVuSans-BoldOblique-72" transform="translate(230.957031 0)"/>
     <use xlink:href="#DejaVuSans-BoldOblique-73" transform="translate(280.273438 0)"/>
     <use xlink:href="#DejaVuSans-BoldOblique-74" transform="translate(339.794922 0)"/>
     <use xlink:href="#DejaVuSans-BoldOblique-6f" transform="translate(387.597656 0)"/>
     <use xlink:href="#DejaVuSans-BoldOblique-6f" transform="translate(456.298828 0)"/>
     <use xlink:href="#DejaVuSans-BoldOblique-6c" transform="translate(525 0)"/>
     <use xlink:href="#DejaVuSans-BoldOblique-73" transform="translate(559.277344 0)"/>
    </g>
   </g>
   <g id="text_17">
    <!-- imagetools -->
    <g style="fill: #5b2c82" transform="translate(680.244854 419.55532) scale(0.12 -0.12)">
     <defs>
      <path id="DejaVuSans-BoldOblique-61" d="M 2106 1575 
Q 1688 1575 1473 1445 
Q 1259 1316 1259 1063 
Q 1259 872 1386 762 
Q 1513 653 1734 653 
Q 2078 653 2309 861 
Q 2541 1069 2619 1447 
L 2644 1575 
L 2106 1575 
z
M 3853 1997 
L 3463 0 
L 2344 0 
L 2438 519 
Q 2163 206 1856 57 
Q 1550 -91 1191 -91 
Q 694 -91 401 167 
Q 109 425 109 863 
Q 109 1531 626 1886 
Q 1144 2241 2119 2241 
L 2778 2241 
L 2791 2328 
Q 2800 2372 2801 2390 
Q 2803 2409 2803 2425 
Q 2803 2631 2608 2736 
Q 2413 2841 2028 2841 
Q 1681 2841 1356 2769 
Q 1031 2697 728 2553 
L 897 3406 
Q 1247 3494 1614 3539 
Q 1981 3584 2375 3584 
Q 3153 3584 3531 3317 
Q 3909 3050 3909 2503 
Q 3909 2397 3895 2270 
Q 3881 2144 3853 1997 
z
" transform="scale(0.015625)"/>
      <path id="DejaVuSans-BoldOblique-67" d="M 2675 594 
Q 2406 288 2128 144 
Q 1850 0 1522 0 
Q 928 0 583 383 
Q 238 766 238 1428 
Q 238 1781 358 2136 
Q 478 2491 703 2803 
Q 978 3181 1334 3379 
Q 1691 3578 2100 3578 
Q 2469 3578 2720 3434 
Q 2972 3291 3144 2981 
L 3238 3500 
L 4366 3500 
L 3775 459 
Q 3594 -481 3000 -931 
Q 2406 -1381 1350 -1381 
Q 1025 -1381 723 -1331 
Q 422 -1281 128 -1178 
L 294 -306 
Q 559 -475 825 -558 
Q 1091 -641 1369 -641 
Q 1925 -641 2223 -403 
Q 2522 -166 2625 353 
L 2675 594 
z
M 2363 2772 
Q 1950 2772 1676 2400 
Q 1403 2028 1403 1466 
Q 1403 1147 1550 980 
Q 1697 813 1978 813 
Q 2388 813 2663 1183 
Q 2938 1553 2938 2106 
Q 2938 2431 2791 2601 
Q 2644 2772 2363 2772 
z
" transform="scale(0.015625)"/>
      <path id="DejaVuSans-BoldOblique-65" d="M 4025 1619 
L 3988 1441 
L 1369 1441 
Q 1369 1422 1366 1386 
Q 1363 1350 1363 1331 
Q 1363 991 1567 822 
Q 1772 653 2181 653 
Q 2534 653 2926 759 
Q 3319 866 3750 1075 
L 3578 206 
Q 3169 56 2764 -17 
Q 2359 -91 1941 -91 
Q 1122 -91 676 287 
Q 231 666 231 1356 
Q 231 1756 373 2132 
Q 516 2509 788 2822 
Q 1109 3197 1557 3390 
Q 2006 3584 2553 3584 
Q 3263 3584 3680 3206 
Q 4097 2828 4097 2188 
Q 4097 2063 4080 1923 
Q 4063 1784 4025 1619 
z
M 2969 2131 
Q 2978 2172 2983 2214 
Q 2988 2256 2988 2297 
Q 2988 2547 2838 2694 
Q 2688 2841 2431 2841 
Q 2103 2841 1873 2661 
Q 1644 2481 1522 2131 
L 2969 2131 
z
" transform="scale(0.015625)"/>
     </defs>
     <use xlink:href="#DejaVuSans-BoldOblique-69"/>
     <use xlink:href="#DejaVuSans-BoldOblique-6d" transform="translate(34.277344 0)"/>
     <use xlink:href="#DejaVuSans-BoldOblique-61" transform="translate(138.476562 0)"/>
     <use xlink:href="#DejaVuSans-BoldOblique-67" transform="translate(205.957031 0)"/>
     <use xlink:href="#DejaVuSans-BoldOblique-65" transform="translate(277.539062 0)"/>
     <use xlink:href="#DejaVuSans-BoldOblique-74" transform="translate(345.361328 0)"/>
     <use xlink:href="#DejaVuSans-BoldOblique-6f" transform="translate(393.164062 0)"/>
     <use xlink:href="#DejaVuSans-BoldOblique-6f" transform="translate(461.865234 0)"/>
     <use xlink:href="#DejaVuSans-BoldOblique-6c" transform="translate(530.566406 0)"/>
     <use xlink:href="#DejaVuSans-BoldOblique-73" transform="translate(564.84375 0)"/>
    </g>
   </g>
   <g id="text_18">
    <!-- freesurfertools -->
    <g style="fill: #5b2c82" transform="translate(535.306676 286.54982) scale(0.12 -0.12)">
     <defs>
      <path id="DejaVuSans-BoldOblique-66" d="M 3456 4863 
L 3309 4128 
L 2694 4128 
Q 2459 4128 2351 4042 
Q 2244 3956 2203 3747 
L 2150 3500 
L 3097 3500 
L 2944 2700 
L 1997 2700 
L 1472 0 
L 347 0 
L 872 2700 
L 319 2700 
L 475 3500 
L 1025 3500 
L 1075 3744 
Q 1191 4325 1556 4594 
Q 1922 4863 2597 4863 
L 3456 4863 
z
" transform="scale(0.015625)"/>
      <path id="DejaVuSans-BoldOblique-75" d="M 434 1363 
L 844 3500 
L 1966 3500 
L 1613 1678 
Q 1575 1500 1556 1375 
Q 1538 1250 1538 1178 
Q 1538 981 1647 872 
Q 1756 763 1959 763 
Q 2306 763 2556 1031 
Q 2806 1300 2900 1778 
L 3238 3500 
L 4359 3500 
L 3681 0 
L 2553 0 
L 2656 513 
Q 2369 209 2053 59 
Q 1738 -91 1388 -91 
Q 909 -91 646 162 
Q 384 416 384 878 
Q 384 988 396 1109 
Q 409 1231 434 1363 
z
" transform="scale(0.015625)"/>
     </defs>
     <use xlink:href="#DejaVuSans-BoldOblique-66"/>
     <use xlink:href="#DejaVuSans-BoldOblique-72" transform="translate(43.505859 0)"/>
     <use xlink:href="#DejaVuSans-BoldOblique-65" transform="translate(92.822266 0)"/>
     <use xlink:href="#DejaVuSans-BoldOblique-65" transform="translate(160.644531 0)"/>
     <use xlink:href="#DejaVuSans-BoldOblique-73" transform="translate(228.466797 0)"/>
     <use xlink:href="#DejaVuSans-BoldOblique-75" transform="translate(287.988281 0)"/>
     <use xlink:href="#DejaVuSans-BoldOblique-72" transform="translate(359.179688 0)"/>
     <use xlink:href="#DejaVuSans-BoldOblique-66" transform="translate(408.496094 0)"/>
     <use xlink:href="#DejaVuSans-BoldOblique-65" transform="translate(452.001953 0)"/>
     <use xlink:href="#DejaVuSans-BoldOblique-72" transform="translate(519.824219 0)"/>
     <use xlink:href="#DejaVuSans-BoldOblique-74" transform="translate(569.140625 0)"/>
     <use xlink:href="#DejaVuSans-BoldOblique-6f" transform="translate(616.943359 0)"/>
     <use xlink:href="#DejaVuSans-BoldOblique-6f" transform="translate(685.644531 0)"/>
     <use xlink:href="#DejaVuSans-BoldOblique-6c" transform="translate(754.345703 0)"/>
     <use xlink:href="#DejaVuSans-BoldOblique-73" transform="translate(788.623047 0)"/>
    </g>
   </g>
   <g id="text_19">
    <!-- dicomtools -->
    <g style="fill: #5b2c82" transform="translate(362.092102 286.54982) scale(0.12 -0.12)">
     <use xlink:href="#DejaVuSans-BoldOblique-64"/>
     <use xlink:href="#DejaVuSans-BoldOblique-69" transform="translate(71.582031 0)"/>
     <use xlink:href="#DejaVuSans-BoldOblique-63" transform="translate(105.859375 0)"/>
     <use xlink:href="#DejaVuSans-BoldOblique-6f" transform="translate(165.136719 0)"/>
     <use xlink:href="#DejaVuSans-BoldOblique-6d" transform="translate(233.837891 0)"/>
     <use xlink:href="#DejaVuSans-BoldOblique-74" transform="translate(338.037109 0)"/>
     <use xlink:href="#DejaVuSans-BoldOblique-6f" transform="translate(385.839844 0)"/>
     <use xlink:href="#DejaVuSans-BoldOblique-6f" transform="translate(454.541016 0)"/>
     <use xlink:href="#DejaVuSans-BoldOblique-6c" transform="translate(523.242188 0)"/>
     <use xlink:href="#DejaVuSans-BoldOblique-73" transform="translate(557.519531 0)"/>
    </g>
   </g>
   <g id="text_20">
    <!-- dwitools -->
    <g style="fill: #5b2c82" transform="translate(238.966737 419.602195) scale(0.12 -0.12)">
     <defs>
      <path id="DejaVuSans-BoldOblique-77" d="M 556 3500 
L 1588 3500 
L 1709 1094 
L 2766 3500 
L 3653 3500 
L 3781 1100 
L 4831 3500 
L 5931 3500 
L 4331 0 
L 3144 0 
L 3028 2406 
L 1959 0 
L 800 0 
L 556 3500 
z
" transform="scale(0.015625)"/>
     </defs>
     <use xlink:href="#DejaVuSans-BoldOblique-64"/>
     <use xlink:href="#DejaVuSans-BoldOblique-77" transform="translate(71.582031 0)"/>
     <use xlink:href="#DejaVuSans-BoldOblique-69" transform="translate(163.964844 0)"/>
     <use xlink:href="#DejaVuSans-BoldOblique-74" transform="translate(198.242188 0)"/>
     <use xlink:href="#DejaVuSans-BoldOblique-6f" transform="translate(246.044922 0)"/>
     <use xlink:href="#DejaVuSans-BoldOblique-6f" transform="translate(314.746094 0)"/>
     <use xlink:href="#DejaVuSans-BoldOblique-6c" transform="translate(383.447266 0)"/>
     <use xlink:href="#DejaVuSans-BoldOblique-73" transform="translate(417.724609 0)"/>
    </g>
   </g>
   <g id="text_21">
    <!-- surfacetools -->
    <g style="fill: #5b2c82" transform="translate(715.490086 403.599001) scale(0.12 -0.12)">
     <use xlink:href="#DejaVuSans-BoldOblique-73"/>
     <use xlink:href="#DejaVuSans-BoldOblique-75" transform="translate(59.521484 0)"/>
     <use xlink:href="#DejaVuSans-BoldOblique-72" transform="translate(130.712891 0)"/>
     <use xlink:href="#DejaVuSans-BoldOblique-66" transform="translate(180.029297 0)"/>
     <use xlink:href="#DejaVuSans-BoldOblique-61" transform="translate(223.535156 0)"/>
     <use xlink:href="#DejaVuSans-BoldOblique-63" transform="translate(291.015625 0)"/>
     <use xlink:href="#DejaVuSans-BoldOblique-65" transform="translate(350.292969 0)"/>
     <use xlink:href="#DejaVuSans-BoldOblique-74" transform="translate(418.115234 0)"/>
     <use xlink:href="#DejaVuSans-BoldOblique-6f" transform="translate(465.917969 0)"/>
     <use xlink:href="#DejaVuSans-BoldOblique-6f" transform="translate(534.619141 0)"/>
     <use xlink:href="#DejaVuSans-BoldOblique-6c" transform="translate(603.320312 0)"/>
     <use xlink:href="#DejaVuSans-BoldOblique-73" transform="translate(637.597656 0)"/>
    </g>
   </g>
   <g id="text_22">
    <!-- tracttools -->
    <g style="fill: #5b2c82" transform="translate(569.616839 247.129409) scale(0.12 -0.12)">
     <use xlink:href="#DejaVuSans-BoldOblique-74"/>
     <use xlink:href="#DejaVuSans-BoldOblique-72" transform="translate(47.802734 0)"/>
     <use xlink:href="#DejaVuSans-BoldOblique-61" transform="translate(97.119141 0)"/>
     <use xlink:href="#DejaVuSans-BoldOblique-63" transform="translate(164.599609 0)"/>
     <use xlink:href="#DejaVuSans-BoldOblique-74" transform="translate(223.876953 0)"/>
     <use xlink:href="#DejaVuSans-BoldOblique-74" transform="translate(271.679688 0)"/>
     <use xlink:href="#DejaVuSans-BoldOblique-6f" transform="translate(319.482422 0)"/>
     <use xlink:href="#DejaVuSans-BoldOblique-6f" transform="translate(388.183594 0)"/>
     <use xlink:href="#DejaVuSans-BoldOblique-6c" transform="translate(456.884766 0)"/>
     <use xlink:href="#DejaVuSans-BoldOblique-73" transform="translate(491.162109 0)"/>
    </g>
   </g>
   <g id="text_23">
    <!-- segmentationtools -->
    <g style="fill: #5b2c82" transform="translate(319.148502 247.082534) scale(0.12 -0.12)">
     <defs>
      <path id="DejaVuSans-BoldOblique-6e" d="M 4128 2131 
L 3713 0 
L 2591 0 
L 2944 1825 
Q 2981 2003 3001 2126 
Q 3022 2250 3022 2322 
Q 3022 2522 2911 2631 
Q 2800 2741 2597 2741 
Q 2250 2741 2001 2470 
Q 1753 2200 1656 1722 
L 1319 0 
L 197 0 
L 878 3500 
L 2003 3500 
L 1900 2988 
Q 2209 3291 2521 3437 
Q 2834 3584 3175 3584 
Q 3659 3584 3921 3331 
Q 4184 3078 4184 2619 
Q 4184 2519 4170 2397 
Q 4156 2275 4128 2131 
z
" transform="scale(0.015625)"/>
     </defs>
     <use xlink:href="#DejaVuSans-BoldOblique-73"/>
     <use xlink:href="#DejaVuSans-BoldOblique-65" transform="translate(59.521484 0)"/>
     <use xlink:href="#DejaVuSans-BoldOblique-67" transform="translate(127.34375 0)"/>
     <use xlink:href="#DejaVuSans-BoldOblique-6d" transform="translate(198.925781 0)"/>
     <use xlink:href="#DejaVuSans-BoldOblique-65" transform="translate(303.125 0)"/>
     <use xlink:href="#DejaVuSans-BoldOblique-6e" transform="translate(370.947266 0)"/>
     <use xlink:href="#DejaVuSans-BoldOblique-74" transform="translate(442.138672 0)"/>
     <use xlink:href="#DejaVuSans-BoldOblique-61" transform="translate(489.941406 0)"/>
     <use xlink:href="#DejaVuSans-BoldOblique-74" transform="translate(557.421875 0)"/>
     <use xlink:href="#DejaVuSans-BoldOblique-69" transform="translate(605.224609 0)"/>
     <use xlink:href="#DejaVuSans-BoldOblique-6f" transform="translate(639.501953 0)"/>
     <use xlink:href="#DejaVuSans-BoldOblique-6e" transform="translate(708.203125 0)"/>
     <use xlink:href="#DejaVuSans-BoldOblique-74" transform="translate(779.394531 0)"/>
     <use xlink:href="#DejaVuSans-BoldOblique-6f" transform="translate(827.197266 0)"/>
     <use xlink:href="#DejaVuSans-BoldOblique-6f" transform="translate(895.898438 0)"/>
     <use xlink:href="#DejaVuSans-BoldOblique-6c" transform="translate(964.599609 0)"/>
     <use xlink:href="#DejaVuSans-BoldOblique-73" transform="translate(998.876953 0)"/>
    </g>
   </g>
   <g id="text_24">
    <!-- pointstools -->
    <g style="fill: #5b2c82" transform="translate(190.068693 403.599001) scale(0.12 -0.12)">
     <use xlink:href="#DejaVuSans-BoldOblique-70"/>
     <use xlink:href="#DejaVuSans-BoldOblique-6f" transform="translate(71.582031 0)"/>
     <use xlink:href="#DejaVuSans-BoldOblique-69" transform="translate(140.283203 0)"/>
     <use xlink:href="#DejaVuSans-BoldOblique-6e" transform="translate(174.560547 0)"/>
     <use xlink:href="#DejaVuSans-BoldOblique-74" transform="translate(245.751953 0)"/>
     <use xlink:href="#DejaVuSans-BoldOblique-73" transform="translate(293.554688 0)"/>
     <use xlink:href="#DejaVuSans-BoldOblique-74" transform="translate(353.076172 0)"/>
     <use xlink:href="#DejaVuSans-BoldOblique-6f" transform="translate(400.878906 0)"/>
     <use xlink:href="#DejaVuSans-BoldOblique-6f" transform="translate(469.580078 0)"/>
     <use xlink:href="#DejaVuSans-BoldOblique-6c" transform="translate(538.28125 0)"/>
     <use xlink:href="#DejaVuSans-BoldOblique-73" transform="translate(572.558594 0)"/>
    </g>
   </g>
   <g id="text_25">
    <!-- parcellationtools -->
    <g style="fill: #a02c2c" transform="translate(750.897861 382.278142) scale(0.125 -0.125)">
     <use xlink:href="#DejaVuSans-BoldOblique-70"/>
     <use xlink:href="#DejaVuSans-BoldOblique-61" transform="translate(71.582031 0)"/>
     <use xlink:href="#DejaVuSans-BoldOblique-72" transform="translate(139.0625 0)"/>
     <use xlink:href="#DejaVuSans-BoldOblique-63" transform="translate(188.378906 0)"/>
     <use xlink:href="#DejaVuSans-BoldOblique-65" transform="translate(247.65625 0)"/>
     <use xlink:href="#DejaVuSans-BoldOblique-6c" transform="translate(315.478516 0)"/>
     <use xlink:href="#DejaVuSans-BoldOblique-6c" transform="translate(349.755859 0)"/>
     <use xlink:href="#DejaVuSans-BoldOblique-61" transform="translate(384.033203 0)"/>
     <use xlink:href="#DejaVuSans-BoldOblique-74" transform="translate(451.513672 0)"/>
     <use xlink:href="#DejaVuSans-BoldOblique-69" transform="translate(499.316406 0)"/>
     <use xlink:href="#DejaVuSans-BoldOblique-6f" transform="translate(533.59375 0)"/>
     <use xlink:href="#DejaVuSans-BoldOblique-6e" transform="translate(602.294922 0)"/>
     <use xlink:href="#DejaVuSans-BoldOblique-74" transform="translate(673.486328 0)"/>
     <use xlink:href="#DejaVuSans-BoldOblique-6f" transform="translate(721.289062 0)"/>
     <use xlink:href="#DejaVuSans-BoldOblique-6f" transform="translate(789.990234 0)"/>
     <use xlink:href="#DejaVuSans-BoldOblique-6c" transform="translate(858.691406 0)"/>
     <use xlink:href="#DejaVuSans-BoldOblique-73" transform="translate(892.96875 0)"/>
    </g>
   </g>
   <g id="text_26">
    <!-- morphometrytools -->
    <g style="fill: #a02c2c" transform="translate(559.294028 194.359361) scale(0.125 -0.125)">
     <defs>
      <path id="DejaVuSans-BoldOblique-68" d="M 4128 2131 
L 3713 0 
L 2591 0 
L 2944 1825 
Q 2981 2003 3001 2126 
Q 3022 2250 3022 2322 
Q 3022 2522 2911 2631 
Q 2800 2741 2597 2741 
Q 2250 2741 2001 2470 
Q 1753 2200 1656 1722 
L 1319 0 
L 197 0 
L 1141 4863 
L 2266 4863 
L 1900 2988 
Q 2209 3291 2521 3437 
Q 2834 3584 3175 3584 
Q 3659 3584 3921 3331 
Q 4184 3078 4184 2619 
Q 4184 2519 4170 2397 
Q 4156 2275 4128 2131 
z
" transform="scale(0.015625)"/>
      <path id="DejaVuSans-BoldOblique-79" d="M 422 3500 
L 1478 3500 
L 1959 1075 
L 3200 3500 
L 4397 3500 
L 2181 -331 
Q 1809 -978 1493 -1179 
Q 1178 -1381 678 -1381 
L 0 -1381 
L 116 -647 
L 469 -647 
Q 744 -647 895 -555 
Q 1047 -463 1166 -231 
L 1269 -44 
L 422 3500 
z
" transform="scale(0.015625)"/>
     </defs>
     <use xlink:href="#DejaVuSans-BoldOblique-6d"/>
     <use xlink:href="#DejaVuSans-BoldOblique-6f" transform="translate(104.199219 0)"/>
     <use xlink:href="#DejaVuSans-BoldOblique-72" transform="translate(172.900391 0)"/>
     <use xlink:href="#DejaVuSans-BoldOblique-70" transform="translate(222.216797 0)"/>
     <use xlink:href="#DejaVuSans-BoldOblique-68" transform="translate(293.798828 0)"/>
     <use xlink:href="#DejaVuSans-BoldOblique-6f" transform="translate(364.990234 0)"/>
     <use xlink:href="#DejaVuSans-BoldOblique-6d" transform="translate(433.691406 0)"/>
     <use xlink:href="#DejaVuSans-BoldOblique-65" transform="translate(537.890625 0)"/>
     <use xlink:href="#DejaVuSans-BoldOblique-74" transform="translate(605.712891 0)"/>
     <use xlink:href="#DejaVuSans-BoldOblique-72" transform="translate(653.515625 0)"/>
     <use xlink:href="#DejaVuSans-BoldOblique-79" transform="translate(702.832031 0)"/>
     <use xlink:href="#DejaVuSans-BoldOblique-74" transform="translate(768.017578 0)"/>
     <use xlink:href="#DejaVuSans-BoldOblique-6f" transform="translate(815.820312 0)"/>
     <use xlink:href="#DejaVuSans-BoldOblique-6f" transform="translate(884.521484 0)"/>
     <use xlink:href="#DejaVuSans-BoldOblique-6c" transform="translate(953.222656 0)"/>
     <use xlink:href="#DejaVuSans-BoldOblique-73" transform="translate(987.5 0)"/>
    </g>
   </g>
   <g id="text_27">
    <!-- connectivitytools -->
    <g style="fill: #a02c2c" transform="translate(299.889087 194.359361) scale(0.125 -0.125)">
     <defs>
      <path id="DejaVuSans-BoldOblique-76" d="M 403 3500 
L 1434 3500 
L 1888 1056 
L 3206 3500 
L 4341 3500 
L 2284 0 
L 1100 0 
L 403 3500 
z
" transform="scale(0.015625)"/>
     </defs>
     <use xlink:href="#DejaVuSans-BoldOblique-63"/>
     <use xlink:href="#DejaVuSans-BoldOblique-6f" transform="translate(59.277344 0)"/>
     <use xlink:href="#DejaVuSans-BoldOblique-6e" transform="translate(127.978516 0)"/>
     <use xlink:href="#DejaVuSans-BoldOblique-6e" transform="translate(199.169922 0)"/>
     <use xlink:href="#DejaVuSans-BoldOblique-65" transform="translate(270.361328 0)"/>
     <use xlink:href="#DejaVuSans-BoldOblique-63" transform="translate(338.183594 0)"/>
     <use xlink:href="#DejaVuSans-BoldOblique-74" transform="translate(397.460938 0)"/>
     <use xlink:href="#DejaVuSans-BoldOblique-69" transform="translate(445.263672 0)"/>
     <use xlink:href="#DejaVuSans-BoldOblique-76" transform="translate(479.541016 0)"/>
     <use xlink:href="#DejaVuSans-BoldOblique-69" transform="translate(544.726562 0)"/>
     <use xlink:href="#DejaVuSans-BoldOblique-74" transform="translate(579.003906 0)"/>
     <use xlink:href="#DejaVuSans-BoldOblique-79" transform="translate(626.806641 0)"/>
     <use xlink:href="#DejaVuSans-BoldOblique-74" transform="translate(691.992188 0)"/>
     <use xlink:href="#DejaVuSans-BoldOblique-6f" transform="translate(739.794922 0)"/>
     <use xlink:href="#DejaVuSans-BoldOblique-6f" transform="translate(808.496094 0)"/>
     <use xlink:href="#DejaVuSans-BoldOblique-6c" transform="translate(877.197266 0)"/>
     <use xlink:href="#DejaVuSans-BoldOblique-73" transform="translate(911.474609 0)"/>
    </g>
   </g>
   <g id="text_28">
    <!-- networktools -->
    <g style="fill: #a02c2c" transform="translate(128.460058 382.278142) scale(0.125 -0.125)">
     <defs>
      <path id="DejaVuSans-BoldOblique-6b" d="M 1141 4863 
L 2266 4863 
L 1753 2228 
L 3263 3500 
L 4581 3500 
L 2547 1881 
L 4025 0 
L 2747 0 
L 1613 1509 
L 1319 0 
L 197 0 
L 1141 4863 
z
" transform="scale(0.015625)"/>
     </defs>
     <use xlink:href="#DejaVuSans-BoldOblique-6e"/>
     <use xlink:href="#DejaVuSans-BoldOblique-65" transform="translate(71.191406 0)"/>
     <use xlink:href="#DejaVuSans-BoldOblique-74" transform="translate(139.013672 0)"/>
     <use xlink:href="#DejaVuSans-BoldOblique-77" transform="translate(186.816406 0)"/>
     <use xlink:href="#DejaVuSans-BoldOblique-6f" transform="translate(279.199219 0)"/>
     <use xlink:href="#DejaVuSans-BoldOblique-72" transform="translate(347.900391 0)"/>
     <use xlink:href="#DejaVuSans-BoldOblique-6b" transform="translate(397.216797 0)"/>
     <use xlink:href="#DejaVuSans-BoldOblique-74" transform="translate(463.720703 0)"/>
     <use xlink:href="#DejaVuSans-BoldOblique-6f" transform="translate(511.523438 0)"/>
     <use xlink:href="#DejaVuSans-BoldOblique-6f" transform="translate(580.224609 0)"/>
     <use xlink:href="#DejaVuSans-BoldOblique-6c" transform="translate(648.925781 0)"/>
     <use xlink:href="#DejaVuSans-BoldOblique-73" transform="translate(683.203125 0)"/>
    </g>
   </g>
   <g id="text_29">
    <!-- connectome -->
    <g style="fill: #a02c2c" transform="translate(811.124335 364.674629) scale(0.125 -0.125)">
     <use xlink:href="#DejaVuSans-BoldOblique-63"/>
     <use xlink:href="#DejaVuSans-BoldOblique-6f" transform="translate(59.277344 0)"/>
     <use xlink:href="#DejaVuSans-BoldOblique-6e" transform="translate(127.978516 0)"/>
     <use xlink:href="#DejaVuSans-BoldOblique-6e" transform="translate(199.169922 0)"/>
     <use xlink:href="#DejaVuSans-BoldOblique-65" transform="translate(270.361328 0)"/>
     <use xlink:href="#DejaVuSans-BoldOblique-63" transform="translate(338.183594 0)"/>
     <use xlink:href="#DejaVuSans-BoldOblique-74" transform="translate(397.460938 0)"/>
     <use xlink:href="#DejaVuSans-BoldOblique-6f" transform="translate(445.263672 0)"/>
     <use xlink:href="#DejaVuSans-BoldOblique-6d" transform="translate(513.964844 0)"/>
     <use xlink:href="#DejaVuSans-BoldOblique-65" transform="translate(618.164062 0)"/>
    </g>
   </g>
   <g id="text_30">
    <!-- visualizationtools -->
    <g style="fill: #a02c2c" transform="translate(580.787089 151.045736) scale(0.125 -0.125)">
     <defs>
      <path id="DejaVuSans-BoldOblique-7a" d="M 697 3500 
L 3750 3500 
L 3597 2719 
L 1416 800 
L 3225 800 
L 3072 0 
L -56 0 
L 91 781 
L 2278 2700 
L 544 2700 
L 697 3500 
z
" transform="scale(0.015625)"/>
     </defs>
     <use xlink:href="#DejaVuSans-BoldOblique-76"/>
     <use xlink:href="#DejaVuSans-BoldOblique-69" transform="translate(65.185547 0)"/>
     <use xlink:href="#DejaVuSans-BoldOblique-73" transform="translate(99.462891 0)"/>
     <use xlink:href="#DejaVuSans-BoldOblique-75" transform="translate(158.984375 0)"/>
     <use xlink:href="#DejaVuSans-BoldOblique-61" transform="translate(230.175781 0)"/>
     <use xlink:href="#DejaVuSans-BoldOblique-6c" transform="translate(297.65625 0)"/>
     <use xlink:href="#DejaVuSans-BoldOblique-69" transform="translate(331.933594 0)"/>
     <use xlink:href="#DejaVuSans-BoldOblique-7a" transform="translate(366.210938 0)"/>
     <use xlink:href="#DejaVuSans-BoldOblique-61" transform="translate(424.414062 0)"/>
     <use xlink:href="#DejaVuSans-BoldOblique-74" transform="translate(491.894531 0)"/>
     <use xlink:href="#DejaVuSans-BoldOblique-69" transform="translate(539.697266 0)"/>
     <use xlink:href="#DejaVuSans-BoldOblique-6f" transform="translate(573.974609 0)"/>
     <use xlink:href="#DejaVuSans-BoldOblique-6e" transform="translate(642.675781 0)"/>
     <use xlink:href="#DejaVuSans-BoldOblique-74" transform="translate(713.867188 0)"/>
     <use xlink:href="#DejaVuSans-BoldOblique-6f" transform="translate(761.669922 0)"/>
     <use xlink:href="#DejaVuSans-BoldOblique-6f" transform="translate(830.371094 0)"/>
     <use xlink:href="#DejaVuSans-BoldOblique-6c" transform="translate(899.072266 0)"/>
     <use xlink:href="#DejaVuSans-BoldOblique-73" transform="translate(933.349609 0)"/>
    </g>
   </g>
   <g id="text_31">
    <!-- pipelinetools -->
    <g style="fill: #a02c2c" transform="translate(296.72708 151.045736) scale(0.125 -0.125)">
     <use xlink:href="#DejaVuSans-BoldOblique-70"/>
     <use xlink:href="#DejaVuSans-BoldOblique-69" transform="translate(71.582031 0)"/>
     <use xlink:href="#DejaVuSans-BoldOblique-70" transform="translate(105.859375 0)"/>
     <use xlink:href="#DejaVuSans-BoldOblique-65" transform="translate(177.441406 0)"/>
     <use xlink:href="#DejaVuSans-BoldOblique-6c" transform="translate(245.263672 0)"/>
     <use xlink:href="#DejaVuSans-BoldOblique-69" transform="translate(279.541016 0)"/>
     <use xlink:href="#DejaVuSans-BoldOblique-6e" transform="translate(313.818359 0)"/>
     <use xlink:href="#DejaVuSans-BoldOblique-65" transform="translate(385.009766 0)"/>
     <use xlink:href="#DejaVuSans-BoldOblique-74" transform="translate(452.832031 0)"/>
     <use xlink:href="#DejaVuSans-BoldOblique-6f" transform="translate(500.634766 0)"/>
     <use xlink:href="#DejaVuSans-BoldOblique-6f" transform="translate(569.335938 0)"/>
     <use xlink:href="#DejaVuSans-BoldOblique-6c" transform="translate(638.037109 0)"/>
     <use xlink:href="#DejaVuSans-BoldOblique-73" transform="translate(672.314453 0)"/>
    </g>
   </g>
   <g id="text_32">
    <!-- qcqatools -->
    <g style="fill: #a02c2c" transform="translate(97.002139 364.674629) scale(0.125 -0.125)">
     <defs>
      <path id="DejaVuSans-BoldOblique-71" d="M 3144 2988 
L 3238 3500 
L 4366 3500 
L 3425 -1331 
L 2297 -1331 
L 2656 506 
Q 2406 200 2125 54 
Q 1844 -91 1509 -91 
Q 919 -91 575 284 
Q 231 659 231 1306 
Q 231 1709 351 2090 
Q 472 2472 697 2784 
Q 981 3178 1339 3381 
Q 1697 3584 2106 3584 
Q 2466 3584 2717 3439 
Q 2969 3294 3144 2988 
z
M 1966 722 
Q 2397 722 2667 1119 
Q 2938 1516 2938 2156 
Q 2938 2447 2786 2609 
Q 2634 2772 2363 2772 
Q 1938 2772 1663 2380 
Q 1388 1988 1388 1375 
Q 1388 1056 1536 889 
Q 1684 722 1966 722 
z
" transform="scale(0.015625)"/>
     </defs>
     <use xlink:href="#DejaVuSans-BoldOblique-71"/>
     <use xlink:href="#DejaVuSans-BoldOblique-63" transform="translate(71.582031 0)"/>
     <use xlink:href="#DejaVuSans-BoldOblique-71" transform="translate(130.859375 0)"/>
     <use xlink:href="#DejaVuSans-BoldOblique-61" transform="translate(202.441406 0)"/>
     <use xlink:href="#DejaVuSans-BoldOblique-74" transform="translate(269.921875 0)"/>
     <use xlink:href="#DejaVuSans-BoldOblique-6f" transform="translate(317.724609 0)"/>
     <use xlink:href="#DejaVuSans-BoldOblique-6f" transform="translate(386.425781 0)"/>
     <use xlink:href="#DejaVuSans-BoldOblique-6c" transform="translate(455.126953 0)"/>
     <use xlink:href="#DejaVuSans-BoldOblique-73" transform="translate(489.404297 0)"/>
    </g>
   </g>
  </g>
 </g>
 <defs>
  <clipPath id="pfd6205ca1c">
   <rect x="7.2" y="7.2" width="970.909091" height="640.8"/>
  </clipPath>
 </defs>
</svg>
